<svg width="24" height="24" viewBox="0 0 24 24" fill="none" xmlns="http://www.w3.org/2000/svg"><path fill-rule="evenodd" clip-rule="evenodd" d="M12.9444 6.69444C12.9444 6.31091 12.6335 6 12.25 6C11.8665 6 11.5556 6.31091 11.5556 6.69444V11.5556H6.69444C6.31091 11.5556 6 11.8665 6 12.25C6 12.6335 6.31091 12.9444 6.69444 12.9444H11.5556V17.8056C11.5556 18.1891 11.8665 18.5 12.25 18.5C12.6335 18.5 12.9444 18.1891 12.9444 17.8056V12.9444H17.8056C18.1891 12.9444 18.5 12.6335 18.5 12.25C18.5 11.8665 18.1891 11.5556 17.8056 11.5556H12.9444V6.69444Z" fill="currentColor"></path></svg>
