<svg width="24" height="24" viewBox="0 0 24 24" fill="none" xmlns="http://www.w3.org/2000/svg"><path fill-rule="evenodd" clip-rule="evenodd" d="M5.2534 2H8.4272C10.2217 2.00547 11.6751 3.46114 11.6806 5.25847V8.43722C11.6806 9.3005 11.3375 10.1283 10.7271 10.7378C10.1167 11.3473 9.28914 11.6884 8.4272 11.6857H5.2534C3.46273 11.6803 2.01091 10.2307 2 8.43722V5.25847C2.01086 3.46339 3.46112 2.01088 5.2534 2ZM9.49722 9.51785C9.77925 9.22977 9.93487 8.84089 9.92956 8.43747V5.25872C9.92414 4.42997 9.25469 3.75948 8.42723 3.75404H5.25342C4.84983 3.74601 4.45999 3.90098 4.17176 4.18404C3.88353 4.4671 3.72116 4.85442 3.72124 5.25872V8.43747C3.71303 8.84692 3.87182 9.24204 4.16096 9.53163C4.4501 9.82122 4.8446 9.98025 5.25342 9.97203H8.42723C8.83005 9.96942 9.21519 9.80594 9.49722 9.51785ZM15.5728 12.3145H18.7466C20.5373 12.32 21.9891 13.7696 22 15.563V18.7418C21.9891 20.5369 20.5389 21.9894 18.7466 22.0003H15.5728C13.7821 21.9893 12.3348 20.5353 12.3293 18.7418V15.563C12.3293 13.7689 13.7815 12.3145 15.5728 12.3145ZM19.8118 19.8089C20.0941 19.5262 20.2515 19.1419 20.2489 18.742V15.5633C20.2489 15.1642 20.0906 14.7815 19.8088 14.4993C19.5271 14.2171 19.145 14.0586 18.7465 14.0586H15.5727C14.743 14.0586 14.0704 14.7323 14.0704 15.5633V18.742C14.0677 19.1419 14.2251 19.5262 14.5075 19.8089C14.7898 20.0917 15.1735 20.2494 15.5727 20.2467H18.7465C19.1458 20.2494 19.5295 20.0917 19.8118 19.8089ZM8.41725 12.3145H5.24345C3.45214 12.3145 2 13.7689 2 15.563V18.7418C2.00543 20.5353 3.4528 21.9893 5.24345 22.0003H8.41725C10.2095 21.9894 11.6598 20.5369 11.6707 18.7418V15.563C11.6597 13.7696 10.2079 12.32 8.41725 12.3145ZM9.91964 18.742C9.92231 19.1419 9.76488 19.5262 9.48256 19.8089C9.20024 20.0917 8.81656 20.2494 8.4173 20.2467H5.2435C4.84424 20.2494 4.46056 20.0917 4.17824 19.8089C3.89592 19.5262 3.73849 19.1419 3.74116 18.742V15.5633C3.74116 14.7323 4.41378 14.0586 5.2435 14.0586H8.4173C8.81575 14.0586 9.19787 14.2171 9.47961 14.4993C9.76136 14.7815 9.91964 15.1642 9.91964 15.5633V18.742Z" fill="currentColor"></path></svg>
