<svg width="20" height="20" viewBox="0 0 20 20" fill="none" xmlns="http://www.w3.org/2000/svg"><path fill-rule="evenodd" clip-rule="evenodd" d="M2.3065 7.50967C1.95484 7.50967 1.669 7.22384 1.669 6.87217C1.6665 3.65967 3.65984 1.66634 6.86984 1.66634H13.1223C16.3398 1.66634 18.3332 3.65967 18.3332 6.86967V13.1197C18.3332 16.3388 16.3398 18.333 13.1223 18.333H6.87234C3.67484 18.333 1.6665 16.3388 1.6665 13.1222L1.6665 10.9813C1.6665 10.6338 1.949 10.3513 2.2965 10.3513H2.304V10.3655C2.65567 10.3655 2.94067 10.6505 2.9415 11.0022V11.0038L2.9415 13.1222C2.9415 15.6663 4.33317 17.058 6.86984 17.058H13.1198C15.6582 17.058 17.0582 15.658 17.0582 13.1222V6.87217C17.0582 4.34384 15.6582 2.94384 13.1223 2.94384H6.87234C4.3365 2.94384 2.944 4.34384 2.944 6.87217C2.944 7.22384 2.65817 7.50967 2.3065 7.50967ZM6.59492 10.6246H11.8916L9.82742 12.6804C9.58242 12.9238 9.58159 13.3188 9.82575 13.5638C10.0691 13.8096 10.4649 13.8079 10.7091 13.5654L13.8458 10.4421C13.8466 10.4421 13.8466 10.4421 13.8466 10.4413C13.9041 10.3846 13.9499 10.3154 13.9816 10.2388C14.0133 10.1629 14.0299 10.0821 14.0299 10.0004V9.99959C14.0299 9.99377 14.0285 9.98891 14.027 9.98398C14.0258 9.97973 14.0245 9.97543 14.0241 9.97042C14.0208 9.89959 14.0091 9.82876 13.9816 9.76126C13.9533 9.69292 13.9108 9.63292 13.8616 9.57792C13.8589 9.57522 13.8571 9.57217 13.8553 9.56909C13.8531 9.56551 13.851 9.56189 13.8474 9.55876C13.7899 9.50042 13.7208 9.45459 13.6449 9.42292C13.5674 9.39126 13.4874 9.37459 13.4049 9.37459H6.59492C6.24992 9.37459 5.96992 9.65459 5.96992 9.99959C5.96992 10.3446 6.24992 10.6246 6.59492 10.6246ZM11.7797 7.49876L10.7097 6.43376C10.5872 6.31209 10.428 6.25126 10.2688 6.25126C10.108 6.25126 9.948 6.31209 9.82467 6.43542C9.58134 6.68042 9.58217 7.07542 9.82717 7.31876L10.8972 8.38376C11.1422 8.62709 11.5372 8.62709 11.7813 8.38292C12.0247 8.13792 12.0238 7.74209 11.7797 7.49876Z" fill="currentColor"></path></svg>
