<svg width="16" height="16" viewBox="0 0 16 16" fill="none" xmlns="http://www.w3.org/2000/svg"><path d="M13.3731 7.7542C13.4907 7.75557 13.6039 7.70981 13.6875 7.62713C13.7712 7.54445 13.8183 7.43173 13.8182 7.31413V5.81992C13.8182 3.5735 12.4162 2.18164 10.1851 2.18164H5.82017C3.57375 2.18164 2.18188 3.5735 2.18188 5.81992V10.1848C2.18188 12.4261 3.57375 13.818 5.82017 13.818H10.1851C12.4264 13.818 13.8182 12.4261 13.8182 10.1848C13.8182 9.93897 13.6189 9.73965 13.3731 9.73965C13.1272 9.73965 12.9279 9.93897 12.9279 10.1848C12.9279 11.9502 11.9556 12.9276 10.1851 12.9276H5.82017C4.04964 12.9276 3.07227 11.9502 3.07227 10.1848V5.81992C3.07227 4.04939 4.04964 3.07202 5.82017 3.07202H10.1851C11.9556 3.07202 12.9279 4.04428 12.9279 5.81992V7.29877C12.9279 7.54465 13.1272 7.74397 13.3731 7.74397V7.7542Z" fill="currentColor"></path><path d="M8.00005 4.94336C7.01105 4.94336 6.20642 5.74799 6.20642 6.73699C6.20642 6.96725 6.3931 7.15394 6.62337 7.15394C6.85364 7.15394 7.04032 6.96725 7.04032 6.73699C7.04032 6.2078 7.47086 5.77726 8.00005 5.77726C8.52924 5.77726 8.95978 6.2078 8.95978 6.73699C8.95978 7.26618 8.52924 7.69672 8.00005 7.69672C7.76978 7.69672 7.5831 7.8834 7.5831 8.11367V9.05639C7.5831 9.28665 7.76978 9.47333 8.00005 9.47333C8.23032 9.47333 8.417 9.28665 8.417 9.05639V8.48169C9.20562 8.29326 9.79368 7.58247 9.79368 6.73696C9.79368 5.74799 8.98905 4.94336 8.00005 4.94336Z" fill="currentColor"></path><path d="M8.00033 10.8493C8.24133 10.8493 8.43669 10.6539 8.43669 10.4129C8.43669 10.1719 8.24133 9.97656 8.00033 9.97656C7.75933 9.97656 7.56396 10.1719 7.56396 10.4129C7.56396 10.6539 7.75933 10.8493 8.00033 10.8493Z" fill="currentColor"></path></svg>
