<svg width="16" height="16" viewBox="0 0 16 16" fill="none" xmlns="http://www.w3.org/2000/svg"><path fill-rule="evenodd" clip-rule="evenodd" d="M10.1801 2.18164H5.82058C3.58407 2.18164 2.18189 3.57393 2.18189 5.81975V7.17073C2.1813 7.41626 2.38029 7.61582 2.62581 7.61582H2.62698H2.63221C2.87483 7.61582 3.07207 7.41917 3.07207 7.17597V7.16549V5.81975C3.07207 4.04928 4.04952 3.07182 5.81999 3.07182H10.1801C11.9564 3.07182 12.9281 4.04928 12.9281 5.81975V10.1834C12.9281 11.9539 11.9506 12.9261 10.1801 12.9261H5.82058C4.04487 12.9261 3.07265 11.9486 3.07265 10.1834C3.07265 9.93786 2.87309 9.73829 2.62756 9.73829C2.38145 9.73829 2.18247 9.93786 2.18247 10.1834C2.18189 12.4263 3.57359 13.818 5.81476 13.818H10.1801C12.4265 13.818 13.8182 12.4263 13.8182 10.1851V5.82149C13.8182 3.57393 12.4265 2.18164 10.1801 2.18164ZM7.99718 10.6447C7.7563 10.6447 7.56081 10.4492 7.56081 10.2084V7.63672C7.56081 7.39585 7.7563 7.20036 7.99718 7.20036C8.23805 7.20036 8.43354 7.39585 8.43354 7.63672V10.2084C8.43354 10.4492 8.23805 10.6447 7.99718 10.6447ZM7.99738 6.22775H8.0032C8.24407 6.22775 8.43957 6.03226 8.43957 5.79139C8.43957 5.55051 8.24407 5.35502 8.0032 5.35502C7.76233 5.35502 7.56393 5.55051 7.56393 5.79139C7.56393 6.03226 7.75651 6.22775 7.99738 6.22775Z" fill="currentColor"></path></svg>
