<svg width="28" height="28" viewBox="0 0 28 28" fill="none" xmlns="http://www.w3.org/2000/svg"><path fill-rule="evenodd" clip-rule="evenodd" d="M25.073 6.35v3.34a3.461 3.461 0 0 1-.953 2.432 3.32 3.32 0 0 1-2.36 1.033h-1.357a.917.917 0 0 1-.809-.92c0-.471.349-.868.809-.918h1.317a1.548 1.548 0 0 0 1.106-.479c.291-.303.452-.713.447-1.138V6.35c-.011-.87-.7-1.574-1.553-1.585h-3.282c-.857 0-1.553.71-1.553 1.585v5.009a.924.924 0 0 1-.926.903.887.887 0 0 1-.63-.286.924.924 0 0 1-.244-.66V6.35a3.46 3.46 0 0 1 .979-2.427 3.32 3.32 0 0 1 2.374-1.006h3.282c1.837.044 3.315 1.557 3.353 3.433ZM9.56 2.917h-3.28c-1.854.011-3.353 1.542-3.364 3.433V9.7c.01 1.89 1.512 3.417 3.363 3.423h3.281a3.318 3.318 0 0 0 2.378-.999 3.46 3.46 0 0 0 .986-2.424V6.35c-.006-1.894-1.508-3.428-3.364-3.433ZM11.115 9.7c.005.425-.156.835-.447 1.138-.292.304-.69.476-1.107.479h-3.28a1.536 1.536 0 0 1-1.13-.464A1.603 1.603 0 0 1 4.696 9.7V6.35c0-.426.168-.834.466-1.132a1.536 1.536 0 0 1 1.118-.453h3.281c.856.005 1.548.712 1.554 1.585V9.7Zm7.323 5.177h3.282c1.85.005 3.352 1.533 3.363 3.423v3.35c-.011 1.891-1.51 3.422-3.363 3.433h-3.282c-1.851-.011-3.347-1.544-3.353-3.433V18.3c0-1.89 1.501-3.423 3.353-3.423Zm4.383 7.897c.292-.298.455-.703.452-1.125V18.3c0-.42-.164-.823-.455-1.12a1.538 1.538 0 0 0-1.098-.465h-3.282c-.857 0-1.553.71-1.553 1.586v3.35c-.003.42.16.826.452 1.124.292.298.689.464 1.101.461h3.282c.412.003.81-.163 1.1-.461ZM2.916 21.639v-3.34c0-.909.355-1.781.986-2.423a3.318 3.318 0 0 1 2.378-1h1.348a.899.899 0 0 1 .863.43.94.94 0 0 1 0 .98.9.9 0 0 1-.863.428H6.28c-.86 0-1.558.708-1.563 1.586v3.308c.021.87.71 1.569 1.563 1.585h3.302c.414.003.811-.163 1.105-.46.293-.298.458-.703.458-1.125V16.64a.932.932 0 0 1 .406-.948.89.89 0 0 1 1.013.03c.3.22.439.604.35.97v4.946c0 1.896-1.505 3.434-3.363 3.434h-3.27c-1.843-.04-3.326-1.554-3.364-3.434Z" fill="currentColor"></path><path d="M25.073 9.69h-.1.1Zm0-3.34h.1v-.002l-.1.002Zm-.953 5.772.072.07-.072-.07Zm-2.36 1.033v.1h.002l-.001-.1Zm-1.357 0-.011.1h.011v-.1Zm0-1.838v-.1h-.01l.01.1Zm1.317 0v.1-.1Zm1.106-.479-.072-.069.072.07Zm.447-1.138h-.1V9.7l.1-.001Zm0-3.35h.1V6.35l-.1.001ZM21.72 4.765v-.1.1Zm-4.835 6.594.1.003v-.003h-.1Zm-.926.903-.002.1h.001l.001-.1Zm-.63-.286-.074.068.074-.068Zm-.244-.66.1.004v-.003h-.1Zm0-4.966h.1-.1Zm.979-2.427.071.07-.072-.07Zm2.374-1.006v.1-.1Zm3.282 0 .002-.1h-.002v.1Zm-15.44 0v-.1.1Zm3.281 0v-.1.1ZM2.917 6.35h-.1.1Zm0 3.35h-.1.1Zm3.363 3.423v.1-.1Zm3.281 0v-.1.1Zm2.378-.999-.071-.07.071.07Zm.986-2.424h-.1.1Zm0-3.35h.1-.1Zm-2.257 4.488-.073-.069.073.07Zm.447-1.138h-.1V9.7l.1-.001ZM9.56 11.317v.1h.001v-.1Zm-3.28 0v-.1h-.003l.002.1ZM4.695 9.7l.1.002V9.7h-.1Zm0-3.35h.1-.1Zm.466-1.132.07.07-.07-.07Zm1.118-.453-.002.1h.002v-.1Zm3.281 0 .001-.1v.1Zm1.554 1.585h.1-.1Zm10.605 8.527v-.1.1Zm3.363 3.423h.1-.1Zm0 3.35h.1-.1Zm-3.363 3.433v.1-.1Zm-3.282 0v.1-.1Zm-3.353-3.433h-.1.1Zm8.188 0h-.1.1Zm-.452 1.124.071.07-.071-.07Zm-.003-5.595-.072.07.072-.07Zm-5.933 4.47.1.001h-.1Zm.452 1.125.071-.07-.071.07Zm1.101.461v-.1.1Zm3.282 0v-.1.1ZM2.917 18.3h.1-.1Zm0 3.339h-.1v.002l.1-.002Zm.985-5.763.072.07-.072-.07Zm2.378-1v.1-.1Zm1.348 0v.101h.01l-.01-.1Zm.863.43-.085.052.085-.053Zm-.863 1.408.01-.1h-.01v.1Zm-1.348 0v.1-.1ZM4.717 18.3h-.1.1Zm0 3.308h-.1v.002l.1-.002Zm1.563 1.585-.002.1h.002v-.1Zm3.302 0v-.1.1Zm1.105-.46-.071-.07.07.07Zm.458-1.125h-.1.1Zm0-4.967h.1v-.01l-.001-.008-.099.018Zm1.77.052-.098-.023-.002.011v.012h.1Zm-6.635 8.38-.002.1h.002v-.1ZM25.173 9.689V6.35h-.2v3.34h.2Zm-.98 2.502c.639-.669.991-1.57.98-2.503l-.2.003a3.361 3.361 0 0 1-.925 2.362l.144.138Zm-2.431 1.063a3.42 3.42 0 0 0 2.43-1.063l-.144-.138a3.22 3.22 0 0 1-2.288 1.002l.002.2Zm-1.359 0h1.358v-.2h-1.358v.2Zm-.909-1.018c0 .521.386.962.898 1.018l.022-.199a.817.817 0 0 1-.72-.82h-.2Zm.898-1.019a1.017 1.017 0 0 0-.898 1.019h.2c0-.423.312-.775.72-.82l-.022-.199Zm1.328 0h-1.317v.2h1.317v-.2Zm1.034-.448a1.448 1.448 0 0 1-1.035.448l.001.2a1.648 1.648 0 0 0 1.178-.51l-.144-.138Zm.419-1.068c.005.4-.146.784-.42 1.068l.145.139c.31-.323.48-.758.475-1.21l-.2.003Zm0-3.35V9.7h.2V6.35h-.2Zm-1.455-1.486c.797.01 1.444.668 1.455 1.486l.2-.002c-.012-.923-.743-1.672-1.652-1.684l-.003.2Zm-3.28 0h3.282v-.2h-3.282v.2ZM16.985 6.35c0-.822.653-1.485 1.453-1.485v-.2c-.915 0-1.653.756-1.653 1.685h.2Zm0 5.009V6.35h-.2v5.009h.2Zm-1.027 1.003a1.024 1.024 0 0 0 1.027-1l-.2-.006a.824.824 0 0 1-.824.806l-.003.2Zm-.703-.318a.987.987 0 0 0 .702.318l.005-.2a.786.786 0 0 1-.56-.254l-.147.136Zm-.27-.73c-.01.27.088.533.27.73l.147-.136a.824.824 0 0 1-.217-.588l-.2-.007Zm0-4.964v4.967h.2V6.35h-.2Zm1.007-2.497a3.56 3.56 0 0 0-1.007 2.497h.2a3.36 3.36 0 0 1 .95-2.357l-.143-.14Zm2.446-1.037c-.918 0-1.798.374-2.446 1.037l.143.14a3.219 3.219 0 0 1 2.303-.976v-.2Zm3.282 0h-3.282v.2h3.282v-.2Zm3.453 3.532c-.04-1.928-1.558-3.486-3.451-3.531l-.005.2c1.783.043 3.219 1.51 3.256 3.335l.2-.004ZM6.28 3.017h3.281v-.2h-3.28v.2ZM3.016 6.35c.011-1.839 1.468-3.323 3.265-3.334l-.002-.2c-1.91.011-3.45 1.588-3.462 3.533h.2Zm0 3.349V6.35h-.2V9.7h.2Zm3.264 3.323c-1.794-.005-3.253-1.487-3.264-3.324l-.2.001c.012 1.943 1.556 3.517 3.464 3.523v-.2Zm3.281 0h-3.28v.2h3.28v-.2Zm2.307-.969a3.219 3.219 0 0 1-2.306.969v.2c.917.003 1.799-.368 2.449-1.029l-.143-.14Zm.957-2.354a3.36 3.36 0 0 1-.957 2.354l.143.14A3.56 3.56 0 0 0 13.024 9.7h-.2Zm0-3.35V9.7h.2V6.35h-.2ZM9.56 3.017c1.798.005 3.258 1.493 3.264 3.333h.2c-.006-1.947-1.551-3.528-3.463-3.533v.2Zm1.179 7.89c.31-.322.48-.757.474-1.208l-.2.002c.006.4-.145.784-.419 1.068l.145.139Zm-1.178.51a1.648 1.648 0 0 0 1.178-.51l-.145-.138a1.448 1.448 0 0 1-1.034.448l.001.2Zm-3.282 0h3.281v-.2h-3.28v.2Zm-1.2-.494c.317.325.752.503 1.202.494l-.004-.2a1.437 1.437 0 0 1-1.056-.434l-.143.14Zm-.484-1.225c-.009.458.165.9.483 1.225l.143-.14a1.503 1.503 0 0 1-.426-1.081l-.2-.004Zm0-3.348V9.7h.2V6.35h-.2Zm.495-1.203c-.317.317-.495.75-.495 1.203h.2c0-.4.157-.782.437-1.062l-.142-.141Zm1.191-.482a1.636 1.636 0 0 0-1.191.482l.142.141c.278-.279.655-.431 1.045-.423l.004-.2Zm3.28 0H6.28v.2h3.281v-.2Zm1.652 1.685c-.005-.927-.74-1.68-1.652-1.685l-.001.2c.799.005 1.448.665 1.454 1.486l.2-.001Zm0 3.35V6.35h-.2V9.7h.2Zm10.506 5.077h-3.282v.2h3.282v-.2Zm3.463 3.522c-.011-1.943-1.555-3.516-3.463-3.522v.2c1.794.005 3.252 1.486 3.263 3.323h.2Zm0 3.35V18.3h-.2v3.35h.2Zm-3.463 3.534c1.91-.012 3.452-1.588 3.463-3.533l-.2-.001c-.01 1.839-1.468 3.323-3.264 3.334l.001.2Zm-3.282 0h3.282v-.2h-3.282v.2Zm-3.453-3.533c.006 1.943 1.545 3.521 3.453 3.533v-.2c-1.794-.011-3.247-1.497-3.253-3.334h-.2Zm0-3.35v3.35h.2V18.3h-.2Zm3.453-3.523c-1.909 0-3.453 1.579-3.453 3.523h.2c0-1.838 1.458-3.323 3.253-3.323v-.2Zm4.735 6.873c.002.395-.15.775-.423 1.054l.142.14c.31-.317.484-.748.48-1.195l-.2.001Zm0-3.35v3.35h.2V18.3h-.2Zm-.426-1.051c.272.278.426.656.426 1.05h.2c0-.446-.174-.874-.484-1.19l-.142.14Zm-1.027-.435c.384 0 .754.156 1.027.435l.142-.14a1.637 1.637 0 0 0-1.17-.495v.2Zm-3.282 0h3.282v-.2h-3.282v.2ZM16.985 18.3c0-.823.653-1.486 1.453-1.486v-.2c-.915 0-1.653.757-1.653 1.686h.2Zm0 3.35V18.3h-.2v3.35h.2Zm.423 1.054a1.492 1.492 0 0 1-.423-1.054l-.2-.001c-.003.447.17.878.48 1.195l.143-.14Zm1.03.431a1.427 1.427 0 0 1-1.03-.431l-.142.14c.31.317.733.494 1.173.491l-.001-.2Zm3.282 0h-3.282v.2h3.282v-.2Zm1.03-.431a1.427 1.427 0 0 1-1.03.431l-.001.2c.44.003.863-.174 1.173-.491l-.142-.14ZM2.817 18.3v3.339h.2v-3.34h-.2Zm1.014-2.495A3.56 3.56 0 0 0 2.817 18.3h.2c0-.884.344-1.731.957-2.354l-.143-.14Zm2.45-1.028a3.418 3.418 0 0 0-2.45 1.029l.143.14a3.219 3.219 0 0 1 2.306-.97v-.2Zm1.347 0H6.28v.2h1.348v-.2Zm.949.476a1 1 0 0 0-.96-.476l.021.2a.8.8 0 0 1 .768.38l.17-.104Zm0 1.085a1.04 1.04 0 0 0 0-1.085l-.171.104a.84.84 0 0 1 0 .876l.17.105Zm-.96.476a1 1 0 0 0 .96-.476l-.171-.105a.799.799 0 0 1-.768.382l-.021.199Zm-1.337 0h1.348v-.2H6.28v.2ZM4.817 18.3c.005-.824.66-1.486 1.463-1.486v-.2c-.916 0-1.657.755-1.663 1.685l.2.002Zm0 3.308V18.3h-.2v3.308h.2Zm1.465 1.485c-.797-.015-1.445-.67-1.465-1.488l-.2.005c.023.922.753 1.665 1.661 1.683l.004-.2Zm3.3 0H6.28v.2h3.302v-.2Zm1.034-.43a1.437 1.437 0 0 1-1.033.43l-.002.2c.441.003.865-.174 1.177-.49l-.142-.14Zm.43-1.055c0 .396-.155.776-.43 1.054l.142.14c.312-.316.487-.746.487-1.194h-.2Zm0-4.967v4.967h.2V16.64h-.2Zm.45-1.032c-.346.224-.523.64-.449 1.05l.197-.036a.832.832 0 0 1 .361-.847l-.109-.167Zm1.127.033a.99.99 0 0 0-1.127-.033l.11.168a.79.79 0 0 1 .899.026l.118-.161Zm.389 1.075a1.034 1.034 0 0 0-.389-1.075l-.118.161a.834.834 0 0 1 .312.867l.195.047Zm.003 4.922v-4.946h-.2v4.946h.2ZM9.55 25.173c1.915 0 3.464-1.584 3.464-3.534h-.2c0 1.843-1.463 3.334-3.264 3.334v.2Zm-3.27 0h3.27v-.2h-3.27v.2ZM2.816 21.64c.039 1.932 1.564 3.492 3.461 3.532l.004-.2c-1.786-.038-3.228-1.508-3.266-3.336l-.2.004Z" fill="currentColor"></path></svg>
