<svg width="11" height="11" viewBox="0 0 11 11" fill="none" xmlns="http://www.w3.org/2000/svg"><mask id="path-1-inside-1" fill="white"><path d="M1.53008 7.17218L0.397859 8.26674C-0.107004 8.73081 -0.135144 9.50053 0.334958 9.9982L0.371374 10.0238C0.854718 10.4911 1.6327 10.5039 2.13095 10.0526L3.2582 8.96285C3.76968 8.50198 3.79782 7.72746 3.3211 7.23139C2.84272 6.73852 2.04156 6.70971 1.53008 7.17218Z"></path></mask><path d="M1.53008 7.17218L0.397859 8.26674C-0.107004 8.73081 -0.135144 9.50053 0.334958 9.9982L0.371374 10.0238C0.854718 10.4911 1.6327 10.5039 2.13095 10.0526L3.2582 8.96285C3.76968 8.50198 3.79782 7.72746 3.3211 7.23139C2.84272 6.73852 2.04156 6.70971 1.53008 7.17218Z" fill="currentColor"></path><path d="M0.397859 8.26674L0.668639 8.56133L0.675879 8.55433L0.397859 8.26674ZM0.334958 9.9982L0.044175 10.2729L0.0718849 10.3022L0.104896 10.3254L0.334958 9.9982ZM0.371374 10.0238L0.649394 9.73622L0.626961 9.71453L0.601437 9.69659L0.371374 10.0238ZM2.13095 10.0526L2.39961 10.3492L2.40897 10.3402L2.13095 10.0526ZM3.2582 8.96285L2.99027 8.6655L2.98018 8.67526L3.2582 8.96285ZM3.3211 7.23139L3.60951 6.95423L3.60813 6.9528L3.3211 7.23139ZM1.25206 6.8846L0.119839 7.97916L0.675879 8.55433L1.8081 7.45977L1.25206 6.8846ZM0.127164 7.97225C-0.541289 8.5867 -0.57966 9.61245 0.044175 10.2729L0.625741 9.72353C0.309372 9.3886 0.327282 8.87493 0.668554 8.56123L0.127164 7.97225ZM0.104896 10.3254L0.141312 10.351L0.601437 9.69659L0.56502 9.67098L0.104896 10.3254ZM0.0933542 10.3114C0.728057 10.925 1.74505 10.9418 2.39947 10.3491L1.86242 9.75614C1.52036 10.0659 0.98138 10.0572 0.649394 9.73622L0.0933542 10.3114ZM2.40897 10.3402L3.53622 9.25043L2.98018 8.67526L1.85293 9.76503L2.40897 10.3402ZM3.52595 9.26001C4.20509 8.64808 4.24299 7.61342 3.60951 6.95423L3.03269 7.50855C3.35265 7.84151 3.33427 8.35588 2.99044 8.66568L3.52595 9.26001ZM3.60813 6.9528C2.98041 6.30606 1.93381 6.26788 1.26181 6.87548L1.79834 7.46888C2.14931 7.15155 2.70502 7.17097 3.03407 7.50998L3.60813 6.9528Z" fill="#F7FAFF" mask="url(#path-1-inside-1)"></path><path d="M10.2309 9.65985L10.2187 9.67227L10.2178 9.67367L10.2169 9.67444C10.2139 9.67738 10.2099 9.68124 10.2055 9.68589C9.79496 10.077 9.13272 10.084 8.71382 9.69858C8.71357 9.69835 8.71332 9.69812 8.71307 9.69789L8.65268 9.64103L0.743654 1.99657C0.337333 1.57745 0.329273 0.931043 0.724422 0.504497C1.1314 0.104623 1.79753 0.0974398 2.21308 0.489769L2.22651 0.502447L2.23046 0.504995L5.31166 3.48534L5.45071 3.61984L5.58976 3.48534L8.39699 0.769844C8.82432 0.377339 9.49942 0.381536 9.92247 0.780185C9.99818 0.85353 10.0607 0.934408 10.1076 1.02242L10.1074 1.02252L10.1122 1.03063C10.3506 1.43156 10.2829 1.9349 9.94303 2.26497C9.94298 2.26503 9.94292 2.26508 9.94286 2.26514L7.14578 4.96762L6.997 5.11137L7.1457 5.2552L10.1881 8.19804L10.188 8.1981L10.1922 8.20193C10.6216 8.59424 10.6382 9.24609 10.2309 9.65985Z" fill="currentColor" stroke="#F7FAFF" stroke-width="0.4"></path></svg>
