<svg
		width="24"
		height="25"
		viewBox="0 0 24 25"
		fill="none"
		xmlns="http://www.w3.org/2000/svg"
	>
		<path
			d="M17.56 7.86a.673.673 0 0 0-.661-.684l-4.39-.047a.672.672 0 0 0-.677.667.672.672 0 0 0 .662.68l3.719.04-.056 3.741a.67.67 0 0 0 .66.683.67.67 0 0 0 .679-.664l.065-4.417ZM6.44 17.47a.674.674 0 0 0 .661.683l4.39.047a.672.672 0 0 0 .677-.667.672.672 0 0 0-.662-.68l-3.719-.04.056-3.741a.67.67 0 0 0-.66-.683.67.67 0 0 0-.679.664L6.44 17.47Z"
			fill="currentColor"
		/>
		<path
			d="M3.53 11.249a.755.755 0 0 1-.756.756h-.011A.763.763 0 0 1 2 11.24V8.918c0-3.86 2.41-6.253 6.254-6.253h7.493C19.608 2.665 22 5.058 22 8.92v7.5c0 3.852-2.392 6.244-6.253 6.244H8.244c-3.852 0-6.244-2.392-6.243-6.247a.765.765 0 1 1 1.53 0c0 3.034 1.671 4.713 4.723 4.713h7.493c3.043 0 4.723-1.67 4.723-4.713v-7.5c0-3.043-1.67-4.723-4.723-4.723H8.253c-3.043 0-4.723 1.68-4.723 4.723v2.331Z"
			fill="currentColor"
		/>
	</svg>
