<svg xmlns="http://www.w3.org/2000/svg" width="20" height="20" fill="none" viewBox="0 0 24 24"><path fill="currentColor" fill-rule="evenodd" d="M12.002 4c4.136.002 7.851 2.886 9.938 7.714.08.183.08.39 0 .573a16.896 16.896 0 0 1-.822 1.654.733.733 0 0 1-.997.277.726.726 0 0 1-.278-.99c.222-.391.432-.804.625-1.228C18.601 7.896 15.453 5.456 12 5.455 8.546 5.456 5.398 7.896 3.531 12c1.867 4.104 5.015 6.545 8.47 6.545 2.007 0 3.944-.831 5.601-2.404a.736.736 0 0 1 1.034.025c.28.289.268.749-.024 1.026C16.679 19.028 14.394 20 12.002 20h-.004c-4.136-.002-7.85-2.885-9.939-7.713a.723.723 0 0 1 0-.573C4.147 6.886 7.862 4.002 11.997 4h.005ZM10.75 14.079a2.44 2.44 0 0 0 1.25.343A2.432 2.432 0 0 0 14.437 12 2.431 2.431 0 0 0 12 9.58 2.431 2.431 0 0 0 9.564 12a.73.73 0 0 1-.732.727A.729.729 0 0 1 8.1 12C8.1 9.863 9.85 8.124 12 8.124S15.899 9.863 15.899 12c0 2.137-1.75 3.876-3.9 3.876-.707 0-1.4-.191-2.003-.552a.723.723 0 0 1-.25-.998.732.732 0 0 1 1.003-.247Z" clip-rule="evenodd"></path></svg>
