<svg width="17" height="17" viewBox="0 0 17 17" fill="none" xmlns="http://www.w3.org/2000/svg"><path fill-rule="evenodd" clip-rule="evenodd" d="M15.0384 8.66136C15.3375 8.66136 15.5799 8.44563 15.5799 8.17951V7.53703C15.5799 4.98927 14.3039 3.74863 11.6898 3.74863H9.76034C9.44623 3.74995 9.14938 3.62094 8.95743 3.3997L8.33501 2.66306C7.93292 2.20395 7.31484 1.9361 6.66072 1.93751H5.30387C2.72708 1.93751 1.42001 3.26123 1.42001 5.87545V10.5999C1.68478 13.0494 3.11297 14.5323 5.84536 14.5323H11.1483C13.8745 14.5323 15.5737 13.0258 15.5737 10.5999C15.5439 10.3522 15.309 10.1644 15.0291 10.1644C14.7491 10.1644 14.5142 10.3522 14.4844 10.5999C14.4844 12.5107 13.3019 13.5686 11.1483 13.5686H5.83914C3.68559 13.5686 2.50301 12.0904 2.50301 10.5999V10.1402V9.17645V5.85329C2.50301 5.75841 2.50474 5.666 2.50823 5.57603C2.55773 5.31897 2.62501 5.1415 2.7087 5.01758C2.83987 4.82336 3.06314 4.69264 3.65917 4.69266H3.65919L9.50863 4.69266C9.59162 4.70181 9.67566 4.70658 9.76034 4.7068H11.6836C13.7064 4.7068 14.4907 5.5099 14.4907 7.53703V8.17951C14.4907 8.30827 14.5486 8.43168 14.6515 8.5222C14.7544 8.61273 14.8937 8.66284 15.0384 8.66136ZM7.94587 3.79266L7.46986 3.23354C7.27616 3.01349 6.98103 2.8832 6.66695 2.87907H5.29764C4.14581 2.87907 3.38281 3.18683 2.94932 3.86301C3.1691 3.81247 3.40746 3.79265 3.65919 3.79266H3.6592L7.94587 3.79266Z" fill="currentColor"></path></svg>
