<svg width="24" height="24" viewBox="0 0 18 18" fill="none" xmlns="http://www.w3.org/2000/svg"><path d="M1.50037 9C1.50037 9.3825 1.52887 9.76575 1.58587 10.1392C1.63162 10.437 1.90837 10.6448 2.20762 10.5953C2.50537 10.5495 2.70937 10.2712 2.66437 9.97425C2.61562 9.6555 2.59087 9.32775 2.59087 9C2.59087 5.466 5.46637 2.59125 9.00037 2.59125C12.5344 2.59125 15.4099 5.466 15.4099 9C15.4099 12.5347 12.5344 15.4095 9.00037 15.4095C6.99562 15.4095 5.14312 14.4983 3.91987 12.9075C3.73462 12.6697 3.39262 12.624 3.15412 12.8085C2.91637 12.9915 2.87137 13.335 3.05512 13.5735C4.48762 15.4328 6.65437 16.5 9.00037 16.5C13.1359 16.5 16.5004 13.1355 16.5004 9C16.5004 4.8645 13.1359 1.5 9.00037 1.5C4.86487 1.5 1.50037 4.8645 1.50037 9Z" fill="currentColor"></path></svg>
