<svg width="16" height="16" viewBox="0 0 16 16" fill="none" xmlns="http://www.w3.org/2000/svg"><path d="M7.99992 1.33301C4.32392 1.33301 1.33325 4.32301 1.33325 7.99967C1.33325 8.33967 1.35925 8.68034 1.40992 9.01234C1.44992 9.27701 1.69592 9.46167 1.96192 9.41768C2.22659 9.37701 2.40792 9.12967 2.36792 8.86567C2.32459 8.58167 2.30259 8.29167 2.30259 7.99967C2.30259 4.85834 4.85859 2.30234 7.99992 2.30234C11.1413 2.30234 13.6973 4.85834 13.6973 7.99967C13.6973 11.1417 11.1413 13.697 7.99992 13.697C6.21792 13.697 4.57192 12.8863 3.48325 11.473C3.31925 11.2617 3.01525 11.221 2.80392 11.385C2.59125 11.5477 2.55192 11.8523 2.71525 12.065C3.98859 13.7177 5.91525 14.6663 7.99992 14.6663C11.6759 14.6663 14.6666 11.6757 14.6666 7.99967C14.6666 4.32301 11.6759 1.33301 7.99992 1.33301Z" fill="currentColor"></path><path d="M10.2265 6.06447L7.41587 8.8758L6.18721 7.64647C5.99187 7.45114 5.67521 7.45114 5.47987 7.64647C5.28454 7.8418 5.28454 8.15847 5.47987 8.3538L7.06187 9.93647C7.15587 10.0298 7.28254 10.0825 7.41587 10.0825C7.54787 10.0825 7.67521 10.0298 7.76921 9.93647L10.9339 6.7718C11.1292 6.57647 11.1292 6.2598 10.9339 6.06447C10.7385 5.86914 10.4219 5.86914 10.2265 6.06447Z" fill="currentColor"></path></svg>
