<svg width="17" height="16" viewBox="0 0 17 16" fill="none" xmlns="http://www.w3.org/2000/svg"><path d="M2.26855 7.99935C2.26855 8.33935 2.29389 8.68002 2.34455 9.01202C2.38522 9.27668 2.63122 9.46135 2.89722 9.41735C3.16189 9.37668 3.34322 9.12935 3.30322 8.86535C3.25989 8.58202 3.23789 8.29068 3.23789 7.99935C3.23789 4.85802 5.79389 2.30268 8.93522 2.30268C12.0766 2.30268 14.6326 4.85802 14.6326 7.99935C14.6326 11.1413 12.0766 13.6967 8.93522 13.6967C7.15322 13.6967 5.50655 12.8867 4.41922 11.4727C4.25455 11.2613 3.95055 11.2207 3.73855 11.3847C3.52722 11.5473 3.48722 11.8527 3.65055 12.0647C4.92389 13.7173 6.84989 14.666 8.93522 14.666C12.6112 14.666 15.6019 11.6753 15.6019 7.99935C15.6019 4.32335 12.6112 1.33268 8.93522 1.33268C5.25922 1.33268 2.26855 4.32335 2.26855 7.99935Z" fill="currentColor"></path><path d="M13.2019 3.34375L4.91736 12.4424" stroke="currentColor"></path></svg>
