<svg width="24" height="24" viewBox="0 0 18 18" fill="none" xmlns="http://www.w3.org/2000/svg"><path d="M8.99988 1.5C4.86438 1.5 1.49988 4.86375 1.49988 9C1.49988 9.3825 1.52913 9.76575 1.58613 10.1392C1.63113 10.437 1.90788 10.6447 2.20713 10.5953C2.50488 10.5495 2.70888 10.2712 2.66388 9.97425C2.61513 9.65475 2.59038 9.3285 2.59038 9C2.59038 5.466 5.46588 2.5905 8.99988 2.5905C12.5339 2.5905 15.4094 5.466 15.4094 9C15.4094 12.5347 12.5339 15.4095 8.99988 15.4095C6.99513 15.4095 5.14338 14.4975 3.91863 12.9075C3.73413 12.6698 3.39213 12.624 3.15438 12.8085C2.91513 12.9915 2.87088 13.3342 3.05463 13.5735C4.48713 15.4327 6.65463 16.5 8.99988 16.5C13.1354 16.5 16.4999 13.1355 16.4999 9C16.4999 4.86375 13.1354 1.5 8.99988 1.5Z" fill="currentColor"></path><path d="M7.44327 9.85947L6.93027 10.3725C6.70152 10.59 6.68877 10.9507 6.90177 11.184L6.91827 11.196C7.13727 11.415 7.48977 11.421 7.71552 11.2095L8.22627 10.6987C8.45802 10.4827 8.47077 10.1197 8.25477 9.88722C8.03802 9.65622 7.67502 9.64272 7.44327 9.85947Z" fill="currentColor"></path><path d="M10.6367 11.1112C10.8624 11.3265 11.2187 11.322 11.4392 11.1022C11.4429 11.0977 11.4474 11.0947 11.4504 11.0902C11.6709 10.8585 11.6619 10.4917 11.4294 10.272L10.0509 8.89271L11.3184 7.62596C11.5022 7.44146 11.5397 7.15796 11.4099 6.93221C11.3837 6.88121 11.3492 6.83546 11.3087 6.79496C11.0822 6.57371 10.7214 6.57146 10.4927 6.78971L9.21991 8.06321L7.82116 6.66371C7.81891 6.66146 7.81741 6.65996 7.81516 6.65846C7.59091 6.43946 7.23241 6.44396 7.01341 6.66821C6.79966 6.90521 6.80416 7.26671 7.02316 7.49921L10.6082 11.0835L10.6367 11.1112Z" fill="currentColor"></path></svg>
