<svg width="24" height="24" fill="none" viewBox="0 0 16 16" xmlns="http://www.w3.org/2000/svg"><path d="M8 1.333a6.674 6.674 0 0 0-6.59 7.68.485.485 0 0 0 .958-.147A5.704 5.704 0 0 1 8 2.303 5.704 5.704 0 0 1 13.697 8 5.704 5.704 0 0 1 8 13.697a5.662 5.662 0 0 1-4.517-2.223.484.484 0 1 0-.768.591A6.627 6.627 0 0 0 8 14.668 6.674 6.674 0 0 0 14.666 8 6.674 6.674 0 0 0 8 1.333Z" fill="currentColor"></path><path d="M8 11.013c.3 0 .544-.243.544-.544v-.007c0-.3-.243-.54-.544-.54a.544.544 0 0 0 0 1.092ZM8 4.985a1.76 1.76 0 0 0-1.757 1.758.408.408 0 0 0 .817 0 .941.941 0 0 1 1.88 0c0 .518-.421.94-.94.94a.408.408 0 0 0-.408.408v.924a.408.408 0 0 0 .817 0v-.563a1.76 1.76 0 0 0 1.349-1.71A1.76 1.76 0 0 0 8 4.986Z" fill="currentColor"></path></svg>
