<svg width="24" height="24" viewBox="0 0 24 24" fill="none" xmlns="http://www.w3.org/2000/svg">
<mask id="path-1-outside-1_1_36082" maskUnits="userSpaceOnUse" x="2" y="2" width="20" height="20">
<rect fill="white" x="2" y="2" width="20" height="20"/>
<path d="M20.3113 11.4063C20.6917 11.4063 21 11.098 21 10.7177V8.62797C21 5.15303 18.8311 3 15.372 3H8.62797C5.15303 3 3 5.15303 3 8.62797V15.3799C3 18.847 5.15303 21 8.62797 21H15.3799C18.847 21 21 18.847 21 15.3799C21 14.9996 20.6917 14.6913 20.3113 14.6913C19.931 14.6913 19.6227 14.9996 19.6227 15.3799C19.6227 18.1108 18.1187 19.6227 15.372 19.6227H8.62797C5.88918 19.6227 4.37731 18.1187 4.37731 15.3799V8.62797C4.37731 5.88918 5.88127 4.37731 8.62797 4.37731H15.372C18.1108 4.37731 19.6227 5.88918 19.6227 8.62797V10.7098C19.6184 10.893 19.6883 11.0703 19.8164 11.2014C19.9445 11.3325 20.1201 11.4064 20.3034 11.4063H20.3113Z"/>
</mask>
<path d="M20.3113 11.4063C20.6917 11.4063 21 11.098 21 10.7177V8.62797C21 5.15303 18.8311 3 15.372 3H8.62797C5.15303 3 3 5.15303 3 8.62797V15.3799C3 18.847 5.15303 21 8.62797 21H15.3799C18.847 21 21 18.847 21 15.3799C21 14.9996 20.6917 14.6913 20.3113 14.6913C19.931 14.6913 19.6227 14.9996 19.6227 15.3799C19.6227 18.1108 18.1187 19.6227 15.372 19.6227H8.62797C5.88918 19.6227 4.37731 18.1187 4.37731 15.3799V8.62797C4.37731 5.88918 5.88127 4.37731 8.62797 4.37731H15.372C18.1108 4.37731 19.6227 5.88918 19.6227 8.62797V10.7098C19.6184 10.893 19.6883 11.0703 19.8164 11.2014C19.9445 11.3325 20.1201 11.4064 20.3034 11.4063H20.3113Z" fill="currentColor"/>
<path d="M21 15.3799H21.1H21ZM19.6227 15.3799H19.5227H19.6227ZM19.6227 10.7098L19.7227 10.7121V10.7098H19.6227ZM20.3113 11.5063C20.7469 11.5063 21.1 11.1532 21.1 10.7177H20.9C20.9 11.0428 20.6364 11.3063 20.3113 11.3063V11.5063ZM21.1 10.7177V8.62797H20.9V10.7177H21.1ZM21.1 8.62797C21.1 6.86943 20.5508 5.43504 19.5538 4.4401C18.5569 3.4452 17.1226 2.9 15.372 2.9V3.1C17.0806 3.1 18.4603 3.63132 19.4125 4.58167C20.3648 5.53198 20.9 6.91157 20.9 8.62797H21.1ZM15.372 2.9H8.62797V3.1H15.372V2.9ZM8.62797 2.9C6.86963 2.9 5.4352 3.44514 4.44017 4.44017C3.44514 5.4352 2.9 6.86963 2.9 8.62797H3.1C3.1 6.91137 3.63137 5.53181 4.58159 4.58159C5.53181 3.63137 6.91137 3.1 8.62797 3.1V2.9ZM2.9 8.62797V15.3799H3.1V8.62797H2.9ZM2.9 15.3799C2.9 17.1344 3.44518 18.5668 4.44021 19.5609C5.43523 20.5549 6.86963 21.1 8.62797 21.1V20.9C6.91137 20.9 5.53179 20.3686 4.58156 19.4194C3.63134 18.4701 3.1 17.0925 3.1 15.3799H2.9ZM8.62797 21.1H15.3799V20.9H8.62797V21.1ZM15.3799 21.1C17.1344 21.1 18.5668 20.5548 19.5608 19.5608C20.5548 18.5668 21.1 17.1344 21.1 15.3799H20.9C20.9 17.0925 20.3687 18.4701 19.4194 19.4194C18.4701 20.3687 17.0925 20.9 15.3799 20.9V21.1ZM21.1 15.3799C21.1 14.9444 20.7469 14.5913 20.3113 14.5913V14.7913C20.6364 14.7913 20.9 15.0548 20.9 15.3799H21.1ZM20.3113 14.5913C19.8758 14.5913 19.5227 14.9444 19.5227 15.3799H19.7227C19.7227 15.0548 19.9862 14.7913 20.3113 14.7913V14.5913ZM19.5227 15.3799C19.5227 16.7275 19.1519 17.7595 18.4567 18.4547C17.7614 19.1499 16.7275 19.5227 15.372 19.5227V19.7227C16.7632 19.7227 17.8547 19.3395 18.5981 18.5961C19.3415 17.8527 19.7227 16.7632 19.7227 15.3799H19.5227ZM15.372 19.5227H8.62797V19.7227H15.372V19.5227ZM8.62797 19.5227C7.27636 19.5227 6.24241 19.1518 5.54621 18.4576C4.85004 17.7633 4.47731 16.7314 4.47731 15.3799H4.27731C4.27731 16.7673 4.66051 17.8567 5.40498 18.5992C6.14941 19.3416 7.24079 19.7227 8.62797 19.7227V19.5227ZM4.47731 15.3799V8.62797H4.27731V15.3799H4.47731ZM4.47731 8.62797C4.47731 7.27636 4.84815 6.24245 5.54338 5.54626C6.2386 4.85009 7.27248 4.47731 8.62797 4.47731V4.27731C7.23676 4.27731 6.14531 4.66047 5.40187 5.40493C4.65845 6.14937 4.27731 7.24079 4.27731 8.62797H4.47731ZM8.62797 4.47731H15.372V4.27731H8.62797V4.47731ZM15.372 4.47731C16.7235 4.47731 17.7574 4.85005 18.4537 5.5463C19.1499 6.24256 19.5227 7.2765 19.5227 8.62797H19.7227C19.7227 7.24065 19.3395 6.14926 18.5951 5.40488C17.8507 4.6605 16.7594 4.27731 15.372 4.27731V4.47731ZM19.5227 8.62797V10.7098H19.7227V8.62797H19.5227ZM19.5227 10.7074C19.5178 10.9176 19.5979 11.1209 19.7449 11.2713L19.8879 11.1315C19.7786 11.0196 19.719 10.8684 19.7227 10.7121L19.5227 10.7074ZM19.7449 11.2713C19.8918 11.4216 20.0932 11.5064 20.3035 11.5063L20.3034 11.3063C20.147 11.3064 19.9972 11.2433 19.8879 11.1315L19.7449 11.2713ZM20.3034 11.5063H20.3113V11.3063H20.3034V11.5063Z" fill="currentColor" mask="url(#path-1-outside-1_1_36082)"/>
</svg>
