<svg width="28" height="28" viewBox="0 0 28 28" fill="none" xmlns="http://www.w3.org/2000/svg"><path fill-rule="evenodd" clip-rule="evenodd" d="M25.667 12.338c0 .493-.4.893-.893.893h-.01a.882.882 0 0 1-.883-.903V9.629c0-3.55-1.96-5.51-5.51-5.51H9.63c-3.56 0-5.51 1.96-5.51 5.51v8.753c0 3.55 1.96 5.5 5.51 5.5h8.742c3.56 0 5.51-1.96 5.51-5.5a.893.893 0 0 1 1.786 0c0 4.494-2.791 7.285-7.285 7.285H9.629c-4.505 0-7.295-2.791-7.295-7.285V9.629c0-4.505 2.79-7.295 7.295-7.295h8.742c4.484 0 7.296 2.79 7.296 7.295v2.709ZM8.12 19.469V12a.882.882 0 0 1 .923-.851.893.893 0 0 1 .862.923v7.46a.893.893 0 1 1-1.785-.062Zm5.027-10.928V19.48a.893.893 0 0 0 1.786 0V8.54a.893.893 0 0 0-1.785 0Zm4.946 10.928V15.98a.893.893 0 0 1 1.786 0v3.49a.893.893 0 1 1-1.786 0Z" fill="currentColor"></path></svg>
