<svg width="24" height="24" fill="none" xmlns="http://www.w3.org/2000/svg"><mask id="a" maskUnits="userSpaceOnUse" x="2" y="2" width="20" height="20" fill="#000"><path fill="#fff" d="M2 2h20v20H2z"></path><path d="M20.311 11.406c.38 0 .689-.308.689-.688v-2.09C21 5.153 18.831 3 15.372 3H8.628C5.153 3 3 5.153 3 8.628v6.752C3 18.847 5.153 21 8.628 21h6.752c3.467 0 5.62-2.153 5.62-5.62a.689.689 0 0 0-1.377 0c0 2.73-1.504 4.243-4.251 4.243H8.628c-2.739 0-4.25-1.504-4.25-4.243V8.628c0-2.739 1.503-4.25 4.25-4.25h6.744c2.739 0 4.25 1.511 4.25 4.25v2.082a.68.68 0 0 0 .681.696h.008Z"></path></mask><path d="M20.311 11.406c.38 0 .689-.308.689-.688v-2.09C21 5.153 18.831 3 15.372 3H8.628C5.153 3 3 5.153 3 8.628v6.752C3 18.847 5.153 21 8.628 21h6.752c3.467 0 5.62-2.153 5.62-5.62a.689.689 0 0 0-1.377 0c0 2.73-1.504 4.243-4.251 4.243H8.628c-2.739 0-4.25-1.504-4.25-4.243V8.628c0-2.739 1.503-4.25 4.25-4.25h6.744c2.739 0 4.25 1.511 4.25 4.25v2.082a.68.68 0 0 0 .681.696h.008Z" fill="currentColor"></path><path d="M21 15.38h.1-.1Zm-1.377 0h-.1.1Zm0-4.67.1.002v-.002h-.1Zm.688.796a.789.789 0 0 0 .789-.788h-.2a.589.589 0 0 1-.589.588v.2Zm.789-.788v-2.09h-.2v2.09h.2Zm0-2.09c0-1.759-.55-3.193-1.546-4.188-.997-.995-2.431-1.54-4.182-1.54v.2c1.709 0 3.088.531 4.04 1.482.953.95 1.488 2.33 1.488 4.046h.2ZM15.372 2.9H8.628v.2h6.744v-.2Zm-6.744 0c-1.758 0-3.193.545-4.188 1.54-.995.995-1.54 2.43-1.54 4.188h.2c0-1.717.531-3.096 1.482-4.046.95-.95 2.33-1.482 4.046-1.482v-.2ZM2.9 8.628v6.752h.2V8.628h-.2Zm0 6.752c0 1.754.545 3.187 1.54 4.18.995.995 2.43 1.54 4.188 1.54v-.2c-1.717 0-3.096-.531-4.046-1.48-.95-.95-1.482-2.328-1.482-4.04h-.2Zm5.728 5.72h6.752v-.2H8.628v.2Zm6.752 0c1.754 0 3.187-.545 4.18-1.54.995-.993 1.54-2.426 1.54-4.18h-.2c0 1.713-.531 3.09-1.48 4.04-.95.949-2.328 1.48-4.04 1.48v.2Zm5.72-5.72a.789.789 0 0 0-.789-.789v.2c.325 0 .589.264.589.589h.2Zm-.789-.789a.789.789 0 0 0-.788.789h.2c0-.325.263-.589.588-.589v-.2Zm-.788.789c0 1.347-.371 2.38-1.066 3.075-.696.695-1.73 1.068-3.085 1.068v.2c1.391 0 2.483-.383 3.226-1.127.744-.743 1.125-1.833 1.125-3.216h-.2Zm-4.151 4.143H8.628v.2h6.744v-.2Zm-6.744 0c-1.352 0-2.386-.371-3.082-1.065-.696-.695-1.069-1.727-1.069-3.078h-.2c0 1.387.384 2.477 1.128 3.22.744.742 1.836 1.123 3.223 1.123v-.2Zm-4.15-4.143V8.628h-.2v6.752h.2Zm0-6.752c0-1.352.37-2.386 1.065-3.082.696-.696 1.73-1.069 3.085-1.069v-.2c-1.391 0-2.483.383-3.226 1.128-.744.744-1.125 1.836-1.125 3.223h.2Zm4.15-4.15h6.744v-.2H8.628v.2Zm6.744 0c1.352 0 2.385.372 3.082 1.068.696.697 1.069 1.73 1.069 3.082h.2c0-1.387-.383-2.479-1.128-3.223-.744-.745-1.836-1.128-3.223-1.128v.2Zm4.15 4.15v2.082h.2V8.628h-.2Zm0 2.08a.78.78 0 0 0 .223.563l.143-.14a.58.58 0 0 1-.165-.419l-.2-.005Zm.223.563a.78.78 0 0 0 .558.235v-.2a.58.58 0 0 1-.415-.174l-.143.14Zm.558.235h.008v-.2h-.008v.2Z" fill="currentColor" mask="url(#a)"></path><path d="M10.376 10.229h-.003a.758.758 0 0 0-.477.272L7.35 13.78l-.004.006a.708.708 0 0 0 .19.902.711.711 0 0 0 .922-.048l.005-.005 2.117-2.7 2.402 1.883a.719.719 0 0 0 1.01-.128l2.6-3.381a.716.716 0 0 0-.128-.999.711.711 0 0 0-1.001.145l-2.164 2.809-2.402-1.882a.719.719 0 0 0-.521-.153Z" fill="currentColor" stroke="currentColor" stroke-width="0.1"></path></svg>
