<svg xmlns="http://www.w3.org/2000/svg" width="28" height="28" viewBox="0 0 28 28" fill="none"><path fill="currentColor" fill-rule="evenodd" d="m17.782 2.618 5.891 6.198a.888.888 0 0 1 .243.61v6.922a5.651 5.651 0 0 0-1.744-.498V9.78l-4.453-4.683v1.535c0 1.18.95 2.141 2.117 2.144a.876.876 0 0 1 .87.883.877.877 0 0 1-.872.879h-.001c-2.128-.005-3.858-1.756-3.858-3.906V4.109h-6.56c-1.945 0-3.587 1.602-3.587 3.5v4.851c0 .487-.391.881-.873.881a.877.877 0 0 1-.872-.88V7.607c0-2.852 2.441-5.26 5.332-5.26h7.364l.03-.008a.13.13 0 0 1 .038-.007c.013 0 .024.004.036.007.01.003.02.006.03.007h.24c.237 0 .464.098.63.271Zm-1.44 21.287H9.415c-2.011 0-3.587-1.63-3.587-3.712v-2.944a.877.877 0 0 0-.873-.88.877.877 0 0 0-.872.88v2.944c0 3.069 2.343 5.473 5.332 5.473h8.21a5.706 5.706 0 0 1-1.283-1.762Z" clip-rule="evenodd"></path><g fill="currentColor"><path fill-rule="evenodd" d="M24.583 25.632a5.423 5.423 0 0 1-7.584-1.08 5.422 5.422 0 0 1 1.08-7.584 5.423 5.423 0 0 1 7.584 1.08 5.385 5.385 0 0 1 .887 4.703.394.394 0 0 1-.76-.21 4.6 4.6 0 0 0-.757-4.02 4.634 4.634 0 0 0-6.481-.923 4.634 4.634 0 0 0-.923 6.481 4.634 4.634 0 0 0 7.012.459.394.394 0 0 1 .562.55c-.19.195-.4.378-.62.544Zm-4.709-2.516a.394.394 0 1 1-.473-.63l1.926-1.446-.229-2.147a.394.394 0 1 1 .784-.084l.252 2.37a.395.395 0 0 1-.155.357l-2.105 1.58Z" clip-rule="evenodd"></path><path d="m26.55 22.75.288.081-.289-.08Zm-.486.275.081-.29h-.001l-.08.29Zm-.274-.485-.289-.08v.001l.29.08Zm-1.15 1.997-.214-.21.214.21Zm.557-.006-.21.215.002.002.208-.217Zm.006.557-.215-.21.215.21Zm-3.877-4.049.18.24.137-.102-.018-.17-.299.032Zm-.228-2.147-.299.032.299-.032Zm.35-.433.031.298-.031-.298Zm.433.35.298-.033-.298.032Zm.253 2.37.298-.03v-.002l-.298.032Zm-5.376 3.553a5.722 5.722 0 0 0 8.004 1.14l-.36-.48a5.122 5.122 0 0 1-7.164-1.02l-.48.36Zm1.14-8.004a5.722 5.722 0 0 0-1.14 8.003l.48-.36a5.122 5.122 0 0 1 1.02-7.163l-.36-.48Zm8.004 1.14a5.723 5.723 0 0 0-8.004-1.14l.36.48a5.123 5.123 0 0 1 7.164 1.02l.48-.36Zm.936 4.963a5.684 5.684 0 0 0-.936-4.963l-.48.36a5.084 5.084 0 0 1 .838 4.442l.578.16Zm-.855.483a.694.694 0 0 0 .855-.483l-.578-.161a.094.094 0 0 1-.115.066l-.162.578Zm-.482-.853c-.1.367.112.75.484.853l.159-.579a.094.094 0 0 1-.065-.116l-.578-.158Zm-.709-3.76a4.3 4.3 0 0 1 .709 3.76l.578.16a4.9 4.9 0 0 0-.807-4.28l-.48.36Zm-6.06-.864a4.334 4.334 0 0 1 6.06.864l.48-.36a4.934 4.934 0 0 0-6.901-.983l.36.48Zm-.864 6.061a4.335 4.335 0 0 1 .863-6.06l-.36-.48a4.934 4.934 0 0 0-.983 6.9l.48-.36Zm6.06.863a4.334 4.334 0 0 1-6.06-.863l-.48.36a4.934 4.934 0 0 0 6.9.983l-.36-.48Zm.498-.434c-.153.155-.32.3-.497.434l.36.48c.201-.151.39-.316.565-.494l-.428-.42Zm.98-.01a.694.694 0 0 0-.98.01l.428.42a.094.094 0 0 1 .133-.001l.42-.43Zm.01.981a.69.69 0 0 0-.012-.983l-.415.433a.09.09 0 0 1 0 .13l.427.42Zm-.654.574a5.77 5.77 0 0 0 .655-.574l-.429-.42a5.17 5.17 0 0 1-.586.514l.36.48Zm-5.68-2.655c.23.306.665.368.971.138l-.36-.48a.094.094 0 0 1-.132-.018l-.48.36Zm.139-.972a.694.694 0 0 0-.14.972l.48-.36a.094.094 0 0 1 .02-.132l-.36-.48Zm1.925-1.446-1.925 1.446.36.48 1.926-1.446-.36-.48Zm-.347-1.875.23 2.147.596-.064-.229-2.147-.597.064Zm.617-.764a.694.694 0 0 0-.617.764l.597-.064a.094.094 0 0 1 .083-.103l-.063-.597Zm.628.274a.694.694 0 0 0-.628-.274l.064.597a.093.093 0 0 1 .084.037l.48-.36Zm.135.342a.694.694 0 0 0-.135-.342l-.48.36c.01.014.017.03.018.046l.597-.064Zm.253 2.37-.253-2.37-.597.064.253 2.37.597-.063Zm-.274.63a.696.696 0 0 0 .274-.628l-.597.061a.095.095 0 0 1-.037.086l.36.48Zm-2.105 1.579 2.105-1.58-.36-.48-2.105 1.58.36.48Z"></path></g><defs><clipPath id="a"><path fill="currentColor" d="M15 15h13v13H15z"></path></clipPath></defs></svg>
