<svg width="24" height="24" viewBox="0 0 24 24" fill="none" xmlns="http://www.w3.org/2000/svg"><path fill-rule="evenodd" clip-rule="evenodd" d="M22 10.5752C22 10.9978 21.6574 11.3404 21.2348 11.3404H21.226C21.0223 11.3404 20.8272 11.2583 20.6849 11.1126C20.5425 10.967 20.4649 10.77 20.4697 10.5664V8.2533C20.4697 5.2102 18.7898 3.53034 15.7467 3.53034H8.2533C5.20141 3.53034 3.53034 5.2102 3.53034 8.2533V15.7555C3.53034 18.7986 5.2102 20.4697 8.2533 20.4697H15.7467C18.7986 20.4697 20.4697 18.7898 20.4697 15.7555C20.4697 15.3329 20.8122 14.9903 21.2348 14.9903C21.6574 14.9903 22 15.3329 22 15.7555C22 19.6077 19.6077 22 15.7555 22H8.2533C4.39226 22 2 19.6077 2 15.7555V8.2533C2 4.39226 4.39226 2 8.2533 2H15.7467C19.5901 2 22 4.39226 22 8.2533V10.5752ZM7.36907 6.96771H13.7103H13.7719C13.9741 6.97455 14.1652 7.06213 14.3024 7.21088C14.4395 7.35963 14.5114 7.55715 14.5019 7.75927C14.495 7.96225 14.4077 8.15416 14.2592 8.29274C14.1108 8.43131 13.9133 8.50518 13.7103 8.49806H7.3163C6.8937 8.48348 6.56294 8.12909 6.57751 7.7065C6.59208 7.28391 6.94647 6.95314 7.36907 6.96771ZM16.7007 11.2895H7.32519C6.90259 11.2895 6.56002 11.6321 6.56002 12.0547C6.56002 12.4773 6.90259 12.8199 7.32519 12.8199H16.7007C17.1233 12.8199 17.4659 12.4773 17.4659 12.0547C17.4659 11.6321 17.1233 11.2895 16.7007 11.2895ZM7.29928 15.5024H10.2896C10.7122 15.5024 11.0548 15.845 11.0548 16.2676C11.0548 16.6902 10.7122 17.0328 10.2896 17.0328H7.29928C6.87669 17.0328 6.53411 16.6902 6.53411 16.2676C6.53411 15.845 6.87669 15.5024 7.29928 15.5024Z" fill="currentColor"></path></svg>
