<svg width="28" height="28" viewBox="0 0 28 28" fill="none" xmlns="http://www.w3.org/2000/svg"><path fill-rule="evenodd" clip-rule="evenodd" d="M25.654 11.594c-.802-4.893-4.984-8.532-9.972-8.677-.499-.011-.98.184-1.329.538a1.71 1.71 0 0 0-.48 1.3l.51 7.631c.08.963.89 1.705 1.862 1.707h.123l7.67-.508c.46-.026.891-.234 1.197-.578a1.71 1.71 0 0 0 .429-1.25v-.163h-.01Zm-9.409.67-.511-7.498c4.012.162 7.372 3.073 8.079 7l-7.568.498Zm3.354 5.222a.942.942 0 0 1 1.146-.64.92.92 0 0 1 .577.422.91.91 0 0 1 .098.706 9.643 9.643 0 0 1-4.694 5.903 9.741 9.741 0 0 1-9.13.139 9.622 9.622 0 0 1-5.188-7.464 5.976 5.976 0 0 1-.072-1.128c-.005-4.575 3.224-8.525 7.732-9.459a.933.933 0 1 1 .368 1.829c-3.638.769-6.237 3.965-6.228 7.66-.009.29.009.578.051.864.449 3.69 3.458 6.551 7.188 6.835 3.73.284 7.143-2.088 8.152-5.667Z" fill="currentColor"></path></svg>
