<svg width="28" height="28" viewBox="0 0 28 28" fill="none" xmlns="http://www.w3.org/2000/svg"><path fill-rule="evenodd" clip-rule="evenodd" d="M2.333 14C2.333 7.566 7.567 2.333 14 2.333S25.667 7.566 25.667 14c0 6.433-5.234 11.666-11.667 11.666-1.627 0-3.202-.328-4.682-.977a.844.844 0 1 1 .68-1.546 9.903 9.903 0 0 0 4.002.835c5.501 0 9.977-4.478 9.977-9.978 0-5.502-4.476-9.978-9.977-9.978-5.502 0-9.977 4.476-9.977 9.978 0 2.154.674 4.204 1.953 5.931a.845.845 0 0 1-1.358 1.005A11.568 11.568 0 0 1 2.333 14Zm10.29 4.63h.042c.342-.008 1.05-.302 1.056-.305 1.188-.5 3.539-2.045 4.488-3.067l.058-.06c.116-.125.29-.317.33-.372.176-.241.27-.528.27-.826 0-.314-.107-.623-.302-.871a8.336 8.336 0 0 0-.276-.303l-.093-.099c-.924-.986-3.33-2.608-4.593-3.098-.192-.076-.668-.254-.928-.26a1.405 1.405 0 0 0-1.342.859c-.088.204-.204.815-.205.824-.123.675-.193 1.75-.19 2.947-.003 1.132.06 2.169.171 2.843.001.007.133.762.27 1.03.241.463.729.759 1.244.759Zm.166-7.275a5.73 5.73 0 0 1 .043-.213l.155.058c1.012.393 3.241 1.896 3.973 2.679l.098.104.008.008a.215.215 0 0 0 .008.01.511.511 0 0 0-.035.035.544.544 0 0 1-.067.07c-.709.766-2.825 2.207-3.905 2.661a6.534 6.534 0 0 1-.103.04l-.13.052a5.153 5.153 0 0 1-.058-.291c-.095-.578-.151-1.539-.15-2.569-.001-1.069.062-2.083.163-2.644Z" fill="currentColor"></path></svg>
