<svg width="28" height="28" fill="none" viewBox="0 0 28 28" xmlns="http://www.w3.org/2000/svg"><path fill-rule="evenodd" clip-rule="evenodd" d="M9.401 8.58c0-2.52 2.063-4.57 4.599-4.57s4.598 2.05 4.598 4.57c0 2.518-2.062 4.568-4.598 4.568S9.4 11.098 9.4 8.58Zm-1.687 0c0 3.442 2.82 6.245 6.286 6.245 3.465 0 6.284-2.803 6.284-6.245 0-3.444-2.819-6.247-6.284-6.247-3.466 0-6.286 2.803-6.286 6.247Zm5.093 17.148c.391.012.789.018 1.193.018 4.007 0 9.333-.445 9.333-4.282 0-4.306-7.025-4.306-9.333-4.306-4.007 0-9.334.444-9.334 4.283 0 1.149.538 2.7 3.1 3.562a.843.843 0 0 0 1.07-.526.835.835 0 0 0-.529-1.06c-1.753-.59-1.955-1.41-1.955-1.976 0-1.73 2.574-2.608 7.648-2.608s7.647.886 7.647 2.631c0 1.729-2.573 2.605-7.647 2.605-.388 0-.77-.005-1.145-.015-.45.004-.852.351-.865.813a.837.837 0 0 0 .817.861Z" fill="currentColor"></path></svg>
