<svg width="24" height="24" viewBox="0 0 24 24" fill="none" xmlns="http://www.w3.org/2000/svg"><path fill-rule="evenodd" clip-rule="evenodd" d="M10.7859 7.75024C10.7859 8.42077 11.3295 8.96434 12 8.96434C12.6705 8.96434 13.2141 8.42077 13.2141 7.75024C13.2141 7.07971 12.6705 6.53613 12 6.53613C11.3295 6.53613 10.7859 7.07971 10.7859 7.75024ZM12 13.2139C11.3295 13.2139 10.7859 12.6703 10.7859 11.9998C10.7859 11.3292 11.3295 10.7856 12 10.7856C12.6705 10.7856 13.2141 11.3292 13.2141 11.9998C13.2141 12.6703 12.6705 13.2139 12 13.2139ZM12 17.4631C11.3295 17.4631 10.7859 16.9195 10.7859 16.249C10.7859 15.5785 11.3295 15.0349 12 15.0349C12.6705 15.0349 13.2141 15.5785 13.2141 16.249C13.2141 16.9195 12.6705 17.4631 12 17.4631Z" fill="currentColor"></path></svg>
