<svg width="16" height="16" viewBox="0 0 16 16" fill="none" xmlns="http://www.w3.org/2000/svg"><path d="M15.1048 11.7673C15.0954 11.7448 15.0852 11.7223 15.0729 11.7013L9.79684 2.46822C9.24907 1.47715 7.99753 1.11729 7.00574 1.66579C6.66837 1.8537 6.39049 2.13085 6.20766 2.46169L0.92799 11.7013C0.915656 11.7223 0.905499 11.7441 0.896792 11.7666C0.690017 12.2745 0.693645 12.8331 0.907675 13.3381C1.12098 13.843 1.51784 14.2348 2.02426 14.4409C2.23757 14.5279 2.46248 14.578 2.6932 14.5896C2.70263 14.5903 2.71134 14.5903 2.72077 14.5903C3.0088 14.5903 3.24968 14.364 3.26419 14.0738C3.27943 13.7734 3.04798 13.5173 2.74834 13.5028C2.64024 13.497 2.53576 13.4738 2.43491 13.4324C2.19621 13.3359 2.00975 13.1516 1.90963 12.9144C1.81386 12.6873 1.80806 12.437 1.89294 12.2063L7.15665 2.99496C7.24443 2.83607 7.3743 2.7062 7.53319 2.61841C7.99898 2.36085 8.58739 2.53062 8.84785 3.00149L14.1072 12.2055C14.1413 12.2969 14.1609 12.3927 14.166 12.4899C14.179 12.7475 14.092 12.9935 13.9193 13.185C13.7459 13.3773 13.5094 13.489 13.2801 13.502H5.50317C5.2028 13.502 4.95902 13.7458 4.95902 14.0462C4.95902 14.3466 5.2028 14.5903 5.50317 14.5903L13.3077 14.5896C13.8554 14.562 14.3597 14.3219 14.7268 13.9141C15.0946 13.5064 15.2811 12.9811 15.2528 12.4333C15.2405 12.2041 15.1911 11.9799 15.1048 11.7673Z" fill="currentColor"></path><path d="M8.00044 11.8131C8.28295 11.8131 8.51223 11.5838 8.51223 11.3013V11.2945C8.51223 11.012 8.28295 10.7861 8.00044 10.7861C7.71793 10.7861 7.48865 11.0188 7.48865 11.3013C7.48865 11.5838 7.71793 11.8131 8.00044 11.8131Z" fill="currentColor"></path><path d="M8.00004 6.46191C7.15885 6.46191 6.47449 7.14628 6.47449 7.98746C6.47449 8.18331 6.63327 8.34209 6.82912 8.34209C7.02497 8.34209 7.18375 8.18331 7.18375 7.98746C7.18375 7.53736 7.54994 7.17117 8.00004 7.17117C8.45013 7.17117 8.81632 7.53736 8.81632 7.98746C8.81632 8.43756 8.45013 8.80375 8.00004 8.80375C7.80419 8.80375 7.64541 8.96253 7.64541 9.15838V9.9602C7.64541 10.156 7.80419 10.3148 8.00004 10.3148C8.19589 10.3148 8.35467 10.156 8.35467 9.9602V9.4714C9.02541 9.31113 9.52559 8.70658 9.52559 7.98744C9.52559 7.14628 8.84122 6.46191 8.00004 6.46191Z" fill="currentColor"></path></svg>
