<svg width="20" height="20" viewBox="0 0 20 20" fill="none" xmlns="http://www.w3.org/2000/svg"><path d="M6.01503 10.1986H9.40286V16.8882C9.40286 17.2259 9.67063 17.5 10.0006 17.5C10.3305 17.5 10.5983 17.2259 10.5983 16.8882V10.1986H13.9861C14.2037 10.1986 14.4045 10.0779 14.5097 9.88212C14.6149 9.68714 14.6077 9.44893 14.4922 9.2613L10.5066 2.78634C10.3967 2.60769 10.2062 2.5 10.0006 2.5C9.79496 2.5 9.60449 2.60769 9.49451 2.78634L7.0152 6.81555C6.83907 7.10026 6.92275 7.47879 7.20169 7.65908C7.48142 7.83856 7.8504 7.7529 8.02653 7.46655L10.0006 4.26048L12.9039 8.97496L6.01503 8.97496C5.68509 8.97496 5.41732 9.24906 5.41732 9.5868C5.41732 9.92454 5.68509 10.1986 6.01503 10.1986Z" fill="currentColor"></path></svg>
