<svg width="26" height="27" viewBox="0 0 26 27" fill="none" xmlns="http://www.w3.org/2000/svg"><path fill-rule="evenodd" clip-rule="evenodd" d="M9.86768 6.30306H21.7888C22.2067 6.30306 22.546 6.66178 22.546 7.10497C22.546 7.54926 22.2067 7.90799 21.7888 7.90799H4.21127C3.79335 7.90799 3.45508 7.54926 3.45508 7.10497C3.45508 6.66178 3.79335 6.30306 4.21127 6.30306H7.59911C8.05014 6.30306 8.4422 5.96188 8.53013 5.49456L8.78253 4.1562C9.03804 3.14036 9.86561 2.4668 10.807 2.4668H15.1941C16.1355 2.4668 16.963 3.14036 17.2072 4.10574C17.3158 4.53467 17.0758 4.97457 16.6723 5.08976C16.2699 5.20494 15.8541 4.95044 15.7455 4.5215C15.6782 4.25712 15.4517 4.07283 15.1941 4.07283H10.807C10.5494 4.07283 10.3228 4.25712 10.2556 4.5215L10.0146 5.8083C9.98147 5.98163 9.92975 6.14399 9.86768 6.30306ZM8.92231 22.7584C7.94992 22.7364 7.39959 22.1769 7.28684 21.0942C6.96202 17.9973 6.40548 10.6638 6.40031 10.5903C6.3672 10.1482 6.00204 9.83334 5.58515 9.85308C5.16827 9.88928 4.85793 10.2765 4.89207 10.7175C4.89724 10.7921 5.45481 18.1509 5.7817 21.273C5.97721 23.1412 7.16787 24.3249 8.89128 24.3633H8.9068C9.31748 24.3633 9.65471 24.0155 9.66402 23.5778C9.6723 23.1346 9.34023 22.7671 8.92231 22.7584ZM20.4148 9.85341C20.0031 9.83037 19.6328 10.1474 19.5997 10.5895C19.5945 10.663 19.0338 18.0163 18.7121 21.089C18.5973 22.1948 18.0397 22.7422 17.0063 22.7631L16.5953 22.7707C15.2833 22.7951 14.6725 22.8065 13.2067 22.8015H13.2046C12.7867 22.8015 12.4484 23.158 12.4474 23.6001C12.4453 24.0444 12.7836 24.4042 13.2015 24.4064C13.4601 24.4075 13.7177 24.4075 13.9763 24.4075C15.0573 24.4075 15.489 24.3985 16.2997 24.3817L16.3017 24.3817C16.5138 24.3773 16.7518 24.3724 17.0342 24.3669C18.8279 24.3329 20.0186 23.1734 20.2172 21.2645C20.541 18.1699 21.1027 10.7925 21.1079 10.719C21.142 10.2769 20.8317 9.88961 20.4148 9.85341Z" fill="currentColor"></path><path d="M9.86768 6.30306L9.5882 6.194L9.42859 6.60306H9.86768V6.30306ZM8.53013 5.49456L8.23532 5.43896L8.2353 5.43908L8.53013 5.49456ZM8.78253 4.1562L8.4916 4.08302L8.4894 4.09175L8.48773 4.1006L8.78253 4.1562ZM17.2072 4.10574L16.9163 4.17929L16.9163 4.17938L17.2072 4.10574ZM16.6723 5.08976L16.59 4.80129L16.5898 4.80134L16.6723 5.08976ZM15.7455 4.5215L16.0363 4.44786L16.0362 4.44756L15.7455 4.5215ZM10.2556 4.5215L9.96486 4.44756L9.96249 4.45685L9.96073 4.46627L10.2556 4.5215ZM10.0146 5.8083L10.3092 5.86458L10.3094 5.86353L10.0146 5.8083ZM7.28684 21.0942L7.58522 21.0631L7.5852 21.0629L7.28684 21.0942ZM8.92231 22.7584L8.91555 23.0583L8.91602 23.0583L8.92231 22.7584ZM6.40031 10.5903L6.69957 10.5692L6.69947 10.5679L6.40031 10.5903ZM5.58515 9.85308L5.57095 9.55319L5.5592 9.55421L5.58515 9.85308ZM4.89207 10.7175L5.19136 10.6968L5.19117 10.6944L4.89207 10.7175ZM5.7817 21.273L6.08007 21.2418L6.08007 21.2418L5.7817 21.273ZM8.89128 24.3633L8.8846 24.6633H8.89128V24.3633ZM9.66402 23.5778L9.96395 23.5842L9.96397 23.5834L9.66402 23.5778ZM19.5997 10.5895L19.3005 10.5671L19.3004 10.5684L19.5997 10.5895ZM20.4148 9.85341L20.4408 9.55439L20.4316 9.55388L20.4148 9.85341ZM18.7121 21.089L18.4137 21.0578L18.4137 21.058L18.7121 21.089ZM17.0063 22.7631L17.0118 23.063L17.0123 23.063L17.0063 22.7631ZM16.5953 22.7707L16.5897 22.4707H16.5897L16.5953 22.7707ZM13.2067 22.8015L13.2077 22.5015H13.2067V22.8015ZM12.4474 23.6001L12.7474 23.6015L12.7474 23.6008L12.4474 23.6001ZM13.2015 24.4064L13.2 24.7064L13.2003 24.7064L13.2015 24.4064ZM16.2997 24.3817V24.0817L16.2935 24.0818L16.2997 24.3817ZM16.2998 24.3817V24.6818L16.3061 24.6817L16.2998 24.3817ZM17.0342 24.3669L17.0285 24.067L17.0284 24.067L17.0342 24.3669ZM20.2172 21.2645L19.9189 21.2333L19.9188 21.2335L20.2172 21.2645ZM21.1079 10.719L20.8088 10.6959L20.8086 10.6979L21.1079 10.719ZM21.7888 6.00306H9.86768V6.60306H21.7888V6.00306ZM22.846 7.10497C22.846 6.51238 22.3882 6.00306 21.7888 6.00306V6.60306C22.0252 6.60306 22.246 6.81117 22.246 7.10497H22.846ZM21.7888 8.20799C22.3885 8.20799 22.846 7.69839 22.846 7.10497H22.246C22.246 7.40014 22.0249 7.60799 21.7888 7.60799V8.20799ZM4.21127 8.20799H21.7888V7.60799H4.21127V8.20799ZM3.15508 7.10497C3.15508 7.69784 3.61105 8.20799 4.21127 8.20799V7.60799C3.97564 7.60799 3.75508 7.40069 3.75508 7.10497H3.15508ZM4.21127 6.00306C3.61131 6.00306 3.15508 6.51293 3.15508 7.10497H3.75508C3.75508 6.81063 3.97538 6.60306 4.21127 6.60306V6.00306ZM7.59911 6.00306H4.21127V6.60306H7.59911V6.00306ZM8.2353 5.43908C8.17181 5.7765 7.89407 6.00306 7.59911 6.00306V6.60306C8.20621 6.60306 8.71258 6.14726 8.82495 5.55003L8.2353 5.43908ZM8.48773 4.1006L8.23532 5.43896L8.82493 5.55015L9.07734 4.2118L8.48773 4.1006ZM10.807 2.1668C9.71333 2.1668 8.7769 2.94873 8.4916 4.08302L9.07347 4.22938C9.29919 3.332 10.0179 2.7668 10.807 2.7668V2.1668ZM15.1941 2.1668H10.807V2.7668H15.1941V2.1668ZM17.498 4.03219C17.2229 2.94447 16.2837 2.1668 15.1941 2.1668V2.7668C15.9872 2.7668 16.7031 3.33626 16.9163 4.17929L17.498 4.03219ZM16.7547 5.37823C17.3268 5.21489 17.6431 4.6051 17.498 4.03209L16.9163 4.17938C16.9885 4.46423 16.8248 4.73425 16.59 4.80129L16.7547 5.37823ZM15.4546 4.59515C15.6009 5.17254 16.1746 5.54428 16.7549 5.37817L16.5898 4.80134C16.3653 4.86561 16.1073 4.72833 16.0363 4.44786L15.4546 4.59515ZM15.1941 4.37283C15.3034 4.37283 15.4185 4.45301 15.4547 4.59545L16.0362 4.44756C15.938 4.06124 15.6 3.77283 15.1941 3.77283V4.37283ZM10.807 4.37283H15.1941V3.77283H10.807V4.37283ZM10.5463 4.59545C10.5826 4.45301 10.6977 4.37283 10.807 4.37283V3.77283C10.4011 3.77283 10.0631 4.06124 9.96486 4.44756L10.5463 4.59545ZM10.3094 5.86353L10.5505 4.57674L9.96073 4.46627L9.7197 5.75307L10.3094 5.86353ZM10.1472 6.41211C10.2138 6.24123 10.2718 6.06075 10.3092 5.86458L9.7199 5.75203C9.69116 5.90252 9.64566 6.04675 9.5882 6.194L10.1472 6.41211ZM6.98845 21.1253C7.04915 21.7082 7.23182 22.1921 7.56827 22.5344C7.90888 22.8809 8.37133 23.046 8.91555 23.0583L8.92908 22.4584C8.50091 22.4488 8.202 22.3232 7.99616 22.1138C7.78615 21.9001 7.63728 21.563 7.58522 21.0631L6.98845 21.1253ZM6.10105 10.6113C6.10624 10.6851 6.66307 18.0231 6.98847 21.1255L7.5852 21.0629C7.42322 19.5186 7.20315 16.9144 7.02273 14.6843C6.93257 13.5698 6.85239 12.5498 6.79443 11.8038C6.76545 11.4308 6.74203 11.1263 6.72569 10.9128C6.71752 10.8061 6.71112 10.7221 6.70669 10.6636C6.70447 10.6344 6.70274 10.6116 6.70154 10.5956C6.70093 10.5875 6.70046 10.5812 6.70012 10.5767C6.69995 10.5744 6.69981 10.5726 6.69971 10.5712C6.69967 10.5706 6.69963 10.5701 6.6996 10.5697C6.69957 10.5693 6.69956 10.5691 6.69957 10.5692L6.10105 10.6113ZM5.59935 10.1527C5.85191 10.1408 6.08002 10.3306 6.10114 10.6127L6.69947 10.5679C6.65439 9.96577 6.15217 9.52589 5.57096 9.55342L5.59935 10.1527ZM5.19117 10.6944C5.16852 10.4017 5.37352 10.1726 5.61111 10.152L5.5592 9.55421C4.96302 9.60598 4.54734 10.1514 4.59296 10.7407L5.19117 10.6944ZM6.08007 21.2418C5.91705 19.6848 5.6962 17.068 5.51527 14.8283C5.42485 13.7091 5.34448 12.685 5.28639 11.936C5.25734 11.5616 5.23387 11.2559 5.2175 11.0416C5.20931 10.9344 5.20291 10.8501 5.19846 10.7914C5.19624 10.7621 5.19452 10.7392 5.1933 10.7231C5.1927 10.715 5.19223 10.7087 5.19189 10.7041C5.19172 10.7018 5.19158 10.7 5.19149 10.6987C5.19138 10.6972 5.19134 10.6967 5.19135 10.6968L4.59279 10.7383C4.598 10.8135 5.15587 18.1766 5.48333 21.3042L6.08007 21.2418ZM8.89796 24.0634C8.10651 24.0457 7.45342 23.767 6.97501 23.2915C6.49481 22.8143 6.17196 22.1198 6.08007 21.2418L5.48333 21.3042C5.58695 22.2944 5.95719 23.1259 6.55205 23.7171C7.1487 24.3101 7.95264 24.6425 8.8846 24.6632L8.89796 24.0634ZM8.9068 24.0633H8.89128V24.6633H8.9068V24.0633ZM9.36409 23.5715C9.35791 23.8619 9.13881 24.0633 8.9068 24.0633V24.6633C9.49614 24.6633 9.95151 24.1692 9.96395 23.5842L9.36409 23.5715ZM8.91602 23.0583C9.15176 23.0632 9.36958 23.2771 9.36407 23.5722L9.96397 23.5834C9.97501 22.9922 9.52871 22.471 8.92861 22.4584L8.91602 23.0583ZM19.8988 10.6119C19.92 10.3293 20.1531 10.1392 20.398 10.1529L20.4316 9.55388C19.8531 9.52151 19.3455 9.96549 19.3005 10.5671L19.8988 10.6119ZM19.0105 21.1203C19.3327 18.0421 19.8937 10.6845 19.8989 10.6106L19.3004 10.5684C19.3004 10.5684 19.3004 10.5689 19.3002 10.5704C19.3001 10.5717 19.3 10.5735 19.2998 10.5758C19.2995 10.5804 19.299 10.5867 19.2984 10.5947C19.2972 10.6108 19.2955 10.6337 19.2932 10.663C19.2888 10.7215 19.2823 10.8057 19.2741 10.9127C19.2577 11.1267 19.2341 11.4319 19.2049 11.8056C19.1466 12.5531 19.066 13.5749 18.9756 14.6903C18.7945 16.9224 18.5742 19.5254 18.4137 21.0578L19.0105 21.1203ZM17.0123 23.063C17.5809 23.0515 18.0609 22.8934 18.4138 22.547C18.7636 22.2037 18.9488 21.7141 19.0105 21.12L18.4137 21.058C18.3606 21.5697 18.2095 21.9068 17.9935 22.1188C17.7806 22.3278 17.4651 22.4538 17.0002 22.4631L17.0123 23.063ZM16.6009 23.0706L17.0118 23.063L17.0007 22.4631L16.5897 22.4707L16.6009 23.0706ZM13.2057 23.1015C14.6747 23.1065 15.288 23.0951 16.6009 23.0706L16.5897 22.4707C15.2786 22.4951 14.6703 22.5064 13.2077 22.5015L13.2057 23.1015ZM13.2046 23.1015H13.2067V22.5015H13.2046V23.1015ZM12.7474 23.6008C12.7481 23.3083 12.9675 23.1015 13.2046 23.1015V22.5015C12.6059 22.5015 12.1488 23.0077 12.1474 23.5994L12.7474 23.6008ZM13.2031 24.1064C12.9662 24.1052 12.746 23.896 12.7474 23.6015L12.1474 23.5987C12.1446 24.1927 12.601 24.7032 13.2 24.7064L13.2031 24.1064ZM13.9763 24.1075C13.7176 24.1075 13.4607 24.1075 13.2028 24.1064L13.2003 24.7064C13.4596 24.7075 13.7178 24.7075 13.9763 24.7075V24.1075ZM16.2935 24.0818C15.4839 24.0986 15.0545 24.1075 13.9763 24.1075V24.7075C15.0602 24.7075 15.4942 24.6985 16.3059 24.6817L16.2935 24.0818ZM16.2998 24.0817H16.2997V24.6817H16.2998V24.0817ZM17.0284 24.067C16.745 24.0724 16.5062 24.0774 16.2936 24.0818L16.3061 24.6817C16.5186 24.6773 16.757 24.6723 17.04 24.6668L17.0284 24.067ZM19.9188 21.2335C19.8253 22.1329 19.5013 22.8296 19.0145 23.3039C18.5294 23.7766 17.8595 24.0512 17.0285 24.067L17.0399 24.6668C18.0026 24.6486 18.8249 24.3264 19.4333 23.7336C20.0399 23.1425 20.4106 22.305 20.5156 21.2956L19.9188 21.2335ZM20.8086 10.6979C20.8086 10.6979 20.8086 10.6984 20.8085 10.6999C20.8084 10.7012 20.8083 10.703 20.8081 10.7053C20.8077 10.7099 20.8073 10.7162 20.8067 10.7243C20.8054 10.7404 20.8037 10.7634 20.8015 10.7927C20.797 10.8515 20.7905 10.9359 20.7823 11.0433C20.7658 11.258 20.7422 11.5642 20.713 11.9392C20.6546 12.6893 20.5738 13.7148 20.483 14.8346C20.3014 17.0754 20.0803 19.69 19.9189 21.2333L20.5156 21.2958C20.84 18.1956 21.402 10.8139 21.4072 10.74L20.8086 10.6979ZM20.3889 10.1523C20.6262 10.1729 20.8315 10.4018 20.8088 10.6959L21.407 10.7421C21.4526 10.1519 21.0372 9.60633 20.4408 9.55453L20.3889 10.1523Z" fill="currentColor"></path></svg>
