<svg width="17" height="16" viewBox="0 0 17 16" fill="none" xmlns="http://www.w3.org/2000/svg"><path fill-rule="evenodd" clip-rule="evenodd" d="M14.3132 7.7543C14.5558 7.7543 14.7531 7.55706 14.7531 7.31444V5.81975C14.7531 3.57335 13.3509 2.18164 11.1184 2.18164H6.75481C4.50841 2.18164 3.1167 3.57335 3.1167 5.8215V10.1851C3.1167 12.4263 4.50841 13.818 6.75481 13.818H11.1202C13.3614 13.818 14.7531 12.4263 14.7513 10.1834C14.7513 9.93786 14.5518 9.7383 14.3062 9.7383C14.0601 9.7383 13.8611 9.93786 13.8611 10.1834C13.8611 11.9486 12.8889 12.9261 11.1184 12.9261H6.75481C4.98434 12.9261 4.00688 11.9486 4.00688 10.1834V5.81975C4.00688 4.04928 4.98434 3.07182 6.75655 3.07182H11.1202C12.8912 3.07182 13.8629 4.04346 13.8629 5.81975V7.29873V7.2999C13.8635 7.54542 14.0624 7.74382 14.308 7.74382V7.7543H14.3132ZM7.66329 8.6662L7.26533 9.06416C7.08788 9.23289 7.07799 9.51274 7.24322 9.69369L7.25602 9.703C7.42591 9.87289 7.69937 9.87754 7.8745 9.71347L8.27071 9.31725C8.45049 9.14969 8.46039 8.86809 8.29282 8.68772C8.12468 8.50852 7.84308 8.49805 7.66329 8.6662ZM10.7631 9.63124C10.5921 9.80171 10.3157 9.8052 10.1406 9.63822L10.1185 9.61669L7.33736 6.83619C7.16747 6.65582 7.16398 6.37539 7.3298 6.19153C7.49969 6.01757 7.7778 6.01408 7.95176 6.18397C7.95351 6.18513 7.95467 6.1863 7.95641 6.18804L9.04151 7.27371L10.0289 6.28579C10.2063 6.11648 10.4862 6.11822 10.6619 6.28986C10.6933 6.32128 10.7201 6.35677 10.7404 6.39633C10.8411 6.57146 10.812 6.79139 10.6694 6.93451L9.68616 7.9172L10.7555 8.98717C10.9359 9.15764 10.9429 9.44215 10.7718 9.62193C10.7705 9.62392 10.7688 9.62553 10.767 9.62719C10.7657 9.62845 10.7644 9.62974 10.7631 9.63124Z" fill="currentColor"></path></svg>
