<svg width="17" height="16" viewBox="0 0 17 16" fill="none" xmlns="http://www.w3.org/2000/svg"><path fill-rule="evenodd" clip-rule="evenodd" d="M14.7531 7.31444C14.7531 7.55706 14.5558 7.7543 14.3132 7.7543H14.308V7.74382C14.0624 7.74382 13.8635 7.54542 13.8629 7.2999V7.29873V5.81975C13.8629 4.04346 12.8912 3.07182 11.1202 3.07182H6.75655C4.98434 3.07182 4.00688 4.04928 4.00688 5.81975V10.1834C4.00688 11.9486 4.98434 12.9261 6.75481 12.9261H11.1184C12.8889 12.9261 13.8611 11.9486 13.8611 10.1834C13.8611 9.93786 14.0601 9.7383 14.3062 9.7383C14.5523 9.7383 14.7513 9.93786 14.7513 10.1834C14.7531 12.4263 13.3614 13.818 11.1202 13.818H6.75481C4.50841 13.818 3.1167 12.4263 3.1167 10.1851V5.8215C3.1167 3.57335 4.50841 2.18164 6.75481 2.18164H11.1184C13.3509 2.18164 14.7531 3.57335 14.7531 5.81975V7.31444ZM8.24409 8.76388L10.697 6.31035C10.8675 6.13988 11.1439 6.13988 11.3144 6.31035C11.4848 6.48083 11.4848 6.75719 11.3144 6.92766L8.55246 9.68956C8.47042 9.77101 8.35929 9.81697 8.24409 9.81697C8.12773 9.81697 8.01719 9.77101 7.93515 9.68956L6.55449 8.30832C6.38402 8.13785 6.38402 7.86148 6.55449 7.69101C6.72497 7.52054 7.00133 7.52054 7.1718 7.69101L8.24409 8.76388Z" fill="currentColor"></path></svg>
