<svg width="28" height="28" viewBox="0 0 28 28" fill="none" xmlns="http://www.w3.org/2000/svg"><path fill-rule="evenodd" clip-rule="evenodd" d="m8.579 14.227-.109 4.328a.862.862 0 0 0 .86.88h4.3a3.33 3.33 0 0 0 2.37-.98l8.614-8.601a3.559 3.559 0 0 0 1.053-2.539 3.56 3.56 0 0 0-1.053-2.537l-1.396-1.394a3.601 3.601 0 0 0-5.084 0l-8.575 8.56a3.333 3.333 0 0 0-.98 2.283Zm1.72.043c.012-.419.18-.814.478-1.11l6.651-6.643 2.186 2.184a.862.862 0 0 0 1.217 0 .86.86 0 0 0 0-1.215l-2.186-2.183.706-.705c.73-.73 1.919-.73 2.65 0l1.396 1.395c.73.73.73 1.916 0 2.646l-8.614 8.601a1.619 1.619 0 0 1-1.152.476h-3.417l.085-3.446Zm-7.104.247a.86.86 0 0 0 .86-.859V9.261c0-3.138 1.915-5.166 4.88-5.166h4.29a.86.86 0 1 0 0-1.717h-4.29c-3.949 0-6.601 2.766-6.601 6.883v4.397a.86.86 0 0 0 .86.86Zm21.607-1.205a.859.859 0 0 0-.86.858v4.613c0 3.139-1.917 5.165-4.883 5.165H8.935c-2.965 0-4.879-2.026-4.879-5.165a.86.86 0 0 0-1.723 0c0 4.118 2.653 6.884 6.602 6.884h10.124c3.95 0 6.603-2.766 6.603-6.884V14.17a.86.86 0 0 0-.86-.858Z" fill="currentColor"></path></svg>
