<svg width="20" height="20" viewBox="0 0 20 20" fill="none" xmlns="http://www.w3.org/2000/svg"><path fill-rule="evenodd" clip-rule="evenodd" d="M10.0004 7.99967C8.87958 7.99967 7.96792 8.89629 7.96792 10.0005C7.96792 10.3261 8.05625 10.6362 8.20625 10.9176L10.9329 8.23347C10.6479 8.08663 10.3296 7.99967 10.0004 7.99967ZM16.1546 3.09246C16.3929 2.85785 16.7787 2.85785 17.0171 3.09246C17.2554 3.32708 17.2554 3.70689 17.0171 3.9415L3.84626 16.9068C3.72709 17.0241 3.57126 17.0832 3.41543 17.0832C3.25876 17.0832 3.10293 17.0241 2.98376 16.9068C2.74543 16.6722 2.74543 16.2924 2.98376 16.0586L7.31376 11.7953C6.94792 11.2703 6.74876 10.651 6.74876 10.0005C6.74876 8.23511 8.20709 6.79953 10.0004 6.79953C10.6563 6.79953 11.2946 6.99805 11.8254 7.35407L13.5204 5.68634C11.1304 4.15561 8.21626 4.28686 5.93959 6.06123C4.73709 6.99231 3.70459 8.35077 2.94376 10.0013C3.2821 10.7387 3.67543 11.4188 4.11376 12.0258C4.30876 12.2957 4.24459 12.6706 3.97043 12.8626C3.86293 12.9381 3.73959 12.9741 3.61709 12.9741C3.42626 12.9741 3.23876 12.8872 3.1196 12.7215C2.5846 11.9807 2.1121 11.1448 1.71626 10.2367C1.65043 10.0858 1.65043 9.9135 1.7171 9.76256C2.56793 7.8233 3.76626 6.2171 5.18459 5.11868C7.93292 2.97844 11.5429 2.87262 14.3979 4.82254L16.1546 3.09246ZM18.2836 9.76166C17.8395 8.75347 17.3095 7.84127 16.7061 7.05293C16.5028 6.78797 16.1211 6.73464 15.8528 6.93398C15.5828 7.13414 15.5295 7.50985 15.732 7.77482C16.2295 8.42534 16.6745 9.17266 17.057 10.0004C15.4936 13.3883 12.8711 15.4022 10.0003 15.4022C9.35032 15.4022 8.70365 15.2981 8.07865 15.093C7.75782 14.9904 7.41365 15.1578 7.30782 15.4728C7.20115 15.787 7.37365 16.1266 7.69282 16.2324C8.44199 16.4785 9.21865 16.6032 10.0003 16.6032C13.4395 16.6032 16.5361 14.2234 18.2836 10.2374C18.3503 10.0865 18.3503 9.91342 18.2836 9.76166ZM11.9926 10.3562C11.8442 11.1683 11.1909 11.8131 10.3659 11.9599C10.0342 12.0198 9.81423 12.3323 9.87423 12.6588C9.92756 12.9484 10.1851 13.151 10.4734 13.151C10.5101 13.151 10.5467 13.1477 10.5834 13.142C11.9067 12.9049 12.9559 11.8713 13.1926 10.5686C13.2526 10.2413 13.0317 9.92959 12.7001 9.87134C12.3709 9.81228 12.0517 10.0313 11.9926 10.3562Z" fill="currentColor"></path></svg>
