<svg width="24" height="24" viewBox="0 0 24 24" fill="none" xmlns="http://www.w3.org/2000/svg"><circle cx="11.5" cy="11.5" r="8.9" stroke="#DDE3EB" stroke-width="1.2"></circle><path d="M3.02885 14.1087C2.2823 11.4151 4.94312 9.05495 6.40684 11.0135C7.87056 12.9721 6.35546 16.0288 9.49337 15.1436C12.6313 14.2584 11.6592 15.0511 13.1389 16.7323C14.3225 18.0773 15.4377 16.5185 15.8473 15.571C16.4546 14.5149 18.0135 13.0492 19.3907 15.6346" stroke="#DDE3EB" stroke-linecap="round" stroke-linejoin="round"></path><path d="M12.5585 4.76782C16.2052 4.62439 16.8745 8.74913 16.93 9.06125C17.5385 10.4881 18.2334 13.2217 16.1447 12.7412C13.5338 12.1405 14.605 9.43689 12.06 8.0823C9.51497 6.7277 8.91174 4.91125 12.5585 4.76782Z" stroke="#DDE3EB" stroke-linecap="round" stroke-linejoin="round"></path><path d="M23.131 21.3673L20.8462 19.1335L20.7927 19.052C20.6931 18.9529 20.557 18.8971 20.4149 18.8971C20.2728 18.8971 20.1366 18.9529 20.0371 19.052C18.0954 20.8334 15.1035 20.9302 13.0455 19.2783C10.9876 17.6264 10.5023 14.7384 11.9114 12.5295C13.3205 10.3207 16.1868 9.47647 18.6094 10.5568C21.032 11.637 22.2591 14.3066 21.4769 16.795C21.4206 16.9748 21.4666 17.1703 21.5977 17.3079C21.7288 17.4454 21.925 17.5042 22.1124 17.462C22.2998 17.4198 22.4499 17.2831 22.5062 17.1033C23.4413 14.1503 22.0291 10.9725 19.1832 9.6255C16.3373 8.27854 12.9118 9.16672 11.1227 11.7155C9.33351 14.2642 9.71763 17.7086 12.0265 19.8205C14.3355 21.9324 17.8762 22.078 20.3583 20.1631L22.3813 22.1409C22.5902 22.3443 22.928 22.3443 23.1369 22.1409C23.3456 21.9347 23.3456 21.6026 23.1369 21.3963L23.131 21.3673Z" fill="#627EFB" stroke="#627EFB" stroke-width="0.5"></path><circle opacity="0.6" cx="16.5" cy="15.2432" r="5" fill="white"></circle></svg>
