<svg width="28" height="28" viewBox="0 0 28 28" fill="none" xmlns="http://www.w3.org/2000/svg"><path fill-rule="evenodd" clip-rule="evenodd" d="M9.973 13.733a.902.902 0 0 1 1.27.002l1.859 1.858V3.81c0-.493.402-.893.898-.893s.9.4.9.893v13.948c0 .362-.22.688-.557.826a.904.904 0 0 1-.98-.194L9.97 14.997a.892.892 0 0 1 .003-1.264Zm5.94 2.123a.89.89 0 0 1-.007-1.264l.849-.855a.902.902 0 0 1 1.27-.007.89.89 0 0 1 .007 1.265l-.849.855a.9.9 0 0 1-1.27.006ZM8.42 24.15c0-.516-.403-.934-.898-.934-1.87 0-3.392-1.582-3.392-3.526v-5.911c0-1.936 1.517-3.512 3.38-3.512h1.098c.496 0 .898-.419.898-.934 0-.516-.402-.934-.898-.934H7.51c-2.855 0-5.176 2.414-5.176 5.38v5.911c0 2.974 2.327 5.393 5.188 5.393.495 0 .898-.418.898-.933ZM25.667 13.79v5.91c0 2.967-2.322 5.382-5.177 5.382h-8.882c-.496 0-.898-.42-.898-.934 0-.516.402-.935.897-.935h8.883c1.864 0 3.38-1.575 3.38-3.512V13.79c0-1.944-1.521-3.526-3.391-3.526h-1.086c-.496 0-.898-.417-.898-.934 0-.515.402-.934.898-.934h1.086c2.86 0 5.188 2.42 5.188 5.394Z" fill="currentColor"></path></svg>
