<svg width="24" height="24" viewBox="0 0 18 18" fill="none" xmlns="http://www.w3.org/2000/svg"><path d="M8.99988 1.5C4.86438 1.5 1.49988 4.86375 1.49988 9C1.49988 9.3825 1.52913 9.76575 1.58613 10.1392C1.63113 10.437 1.90788 10.6447 2.20713 10.5953C2.50488 10.5495 2.70888 10.2712 2.66388 9.97425C2.61513 9.65475 2.59038 9.3285 2.59038 9C2.59038 5.466 5.46588 2.5905 8.99988 2.5905C12.5339 2.5905 15.4094 5.466 15.4094 9C15.4094 12.5347 12.5339 15.4095 8.99988 15.4095C6.99513 15.4095 5.14338 14.4975 3.91863 12.9075C3.73413 12.6698 3.39213 12.624 3.15438 12.8085C2.91513 12.9915 2.87088 13.3342 3.05463 13.5735C4.48713 15.4327 6.65463 16.5 8.99988 16.5C13.1354 16.5 16.4999 13.1355 16.4999 9C16.4999 4.86375 13.1354 1.5 8.99988 1.5Z" fill="currentColor"></path><rect x="5.5" y="8.34961" width="7" height="1.3" rx="0.65" fill="currentColor"></rect></svg>
