<svg
			width="16"
			height="16"
			viewBox="0 0 16 16"
			fill="none"
			xmlns="http://www.w3.org/2000/svg"
		>
			<path
				fillRule="evenodd"
				clipRule="evenodd"
				d="M16 8C16 12.4183 12.4183 16 8 16C3.58172 16 0 12.4183 0 8C0 3.58172 3.58172 0 8 0C12.4183 0 16 3.58172 16 8ZM7.99463 12.546C7.58063 12.546 7.24463 12.21 7.24463 11.796V7.37598C7.24463 6.96198 7.58063 6.62598 7.99463 6.62598C8.40863 6.62598 8.74463 6.96198 8.74463 7.37598V11.796C8.74463 12.21 8.40863 12.546 7.99463 12.546ZM7.25 4.2041C7.25 4.6181 7.581 4.9541 7.995 4.9541H8.005C8.419 4.9541 8.755 4.6181 8.755 4.2041C8.755 3.7901 8.419 3.4541 8.005 3.4541C7.591 3.4541 7.25 3.7901 7.25 4.2041Z"
				fill="#F95C78"
			/>
		</svg>
