<svg width="24" height="24" fill="none" xmlns="http://www.w3.org/2000/svg"><path fill-rule="evenodd" clip-rule="evenodd" d="M20.311 11.406c.38 0 .689-.308.689-.688v-2.09C21 5.153 18.831 3 15.372 3H8.628C5.153 3 3 5.153 3 8.628v6.752C3 18.847 5.153 21 8.628 21h6.752c3.467 0 5.62-2.153 5.62-5.62a.689.689 0 0 0-1.377 0c0 2.73-1.504 4.243-4.251 4.243H9.556V9.613h10.067v1.097a.68.68 0 0 0 .68.696h.008ZM19.6 8.062c-.199-2.38-1.684-3.685-4.228-3.685H8.628c-2.551 0-4.03 1.305-4.228 3.686h15.2ZM4.377 9.613v5.768c0 2.524 1.284 3.999 3.629 4.215V9.613H4.377Z" fill="currentColor"></path></svg>
