<svg
			width="20"
			height="20"
			viewBox="0 0 20 20"
			fill="none"
			xmlns="http://www.w3.org/2000/svg"
		>
			<path
				d="M2.94102 8.82033C2.94102 9.16866 2.65935 9.45033 2.31102 9.45033H2.30352H2.30185C1.95019 9.45033 1.66519 9.16449 1.66602 8.81283V6.87783C1.66602 3.66116 3.67435 1.66699 6.87769 1.66699H13.1219C16.3394 1.66699 18.3327 3.66116 18.3327 6.88033V13.1303C18.3327 16.3403 16.3394 18.3337 13.1219 18.3337H6.86935C3.65935 18.3337 1.66602 16.3403 1.66685 13.1278C1.66685 12.7762 1.95185 12.4903 2.30435 12.4903C2.65685 12.4903 2.94185 12.7762 2.94185 13.1278C2.94185 15.6562 4.33435 17.0562 6.87769 17.0562H13.1219C15.6577 17.0562 17.0577 15.6637 17.0577 13.1278V6.87783C17.0577 4.34199 15.666 2.94199 13.1219 2.94199H6.87685C4.34102 2.94199 2.94102 4.34199 2.94102 6.87783V8.80533V8.82033Z"
				fill="currentColor"
			/>
			<path
				d="M8.58237 8.44614L8.58237 8.44608L8.58004 8.44643C8.41485 8.47106 8.26488 8.55656 8.15971 8.6861L8.1597 8.68609L8.15903 8.68695L5.93677 11.5487L5.93626 11.5483L5.93242 11.5554C5.78418 11.8256 5.85535 12.1633 6.1 12.3511C6.34461 12.5388 6.6898 12.5208 6.91347 12.3086L6.91384 12.309L6.9184 12.3032L8.76259 9.95191L10.8552 11.591L10.8555 11.5912C10.9883 11.6942 11.1568 11.7401 11.3237 11.719C11.4906 11.6978 11.6422 11.6112 11.7451 11.4784L11.7452 11.4782L14.016 8.52637L14.0162 8.52622C14.2261 8.25122 14.1756 7.859 13.9031 7.64577L13.9024 7.64527C13.7687 7.54422 13.6 7.50088 13.4341 7.52494C13.2684 7.54897 13.1191 7.63825 13.0198 7.77286L11.1342 10.2201L9.04225 8.58154C9.04219 8.58149 9.04212 8.58144 9.04206 8.58139C8.91249 8.47795 8.74743 8.42939 8.58237 8.44614Z"
				fill="currentColor"
				stroke="currentColor"
				strokeWidth="0.1"
			/>
		</svg>
