<svg width="28" height="28" fill="none" viewBox="0 0 28 28" xmlns="http://www.w3.org/2000/svg"><path fill-rule="evenodd" clip-rule="evenodd" d="M22.635 8.383a3.031 3.031 0 0 0 2.802-1.87 3.02 3.02 0 0 0-.662-3.297 3.036 3.036 0 0 0-3.307-.65 3.025 3.025 0 0 0-1.864 2.803 3.028 3.028 0 0 0 3.031 3.014Zm0-4.321c.724 0 1.31.585 1.31 1.307 0 .721-.586 1.306-1.31 1.306-.723 0-1.31-.585-1.31-1.306 0-.722.587-1.307 1.31-1.307ZM4.055 18.66c0 3.415 1.887 5.288 5.3 5.288.476.005.86.389.866.864a.865.865 0 0 1-.866.854c-4.33 0-7.022-2.685-7.022-7.006v-8.406c0-4.33 2.692-7.016 7.022-7.016h7.589c.474.006.856.39.856.864a.853.853 0 0 1-.867.854H9.355c-3.413 0-5.3 1.883-5.3 5.298v8.406Zm12.126-2.243a.918.918 0 0 1-.578.33.867.867 0 0 1-.628-.186l-3.166-2.48-2.846 3.694a.856.856 0 0 1-1.206.175.863.863 0 0 1-.155-1.204l3.372-4.383a.866.866 0 0 1 1.217-.154l3.165 2.48 2.784-3.55a.857.857 0 0 1 1.111-.058.853.853 0 0 1 .23 1.087l-3.3 4.249Zm7.805-6.163a.855.855 0 0 0-.856.854v7.552c-.03 3.415-1.918 5.288-5.33 5.288h-3.444a.875.875 0 0 0-.866.864.865.865 0 0 0 .866.854H17.8c4.33 0 7.032-2.685 7.032-7.006v-7.552a.855.855 0 0 0-.846-.854Z" fill="currentColor"></path></svg>
