<svg width="24" height="24" viewBox="0 0 24 24" fill="none" xmlns="http://www.w3.org/2000/svg"><path d="M20.3113 11.4063C20.6917 11.4063 21 11.098 21 10.7177V8.62797C21 5.15303 18.8311 3 15.372 3H8.62797C5.15303 3 3 5.15303 3 8.62797V15.3799C3 18.847 5.15303 21 8.62797 21H15.3799C18.847 21 21 18.847 21 15.3799C21 14.9996 20.6917 14.6913 20.3113 14.6913C19.931 14.6913 19.6227 14.9996 19.6227 15.3799C19.6227 18.1108 18.1187 19.6227 15.372 19.6227H8.62797C5.88918 19.6227 4.37731 18.1187 4.37731 15.3799V8.62797C4.37731 5.88918 5.88127 4.37731 8.62797 4.37731H15.372C18.1108 4.37731 19.6227 5.88918 19.6227 8.62797V10.7098C19.6184 10.893 19.6883 11.0703 19.8164 11.2014C19.9445 11.3325 20.1201 11.4064 20.3034 11.4063H20.3113Z" fill="currentColor"></path><path d="M10.489 8.37983L10.4889 8.37978L10.4869 8.38005C10.3132 8.40289 10.1542 8.48229 10.0419 8.60422L10.0419 8.60421L10.0412 8.60504L7.67146 11.2955L7.67094 11.2951L7.66652 11.3022C7.50573 11.5606 7.58501 11.882 7.84537 12.0582C8.10355 12.2329 8.46687 12.2165 8.70376 12.0184L8.70411 12.0188L8.70904 12.0133L10.6791 9.7988L12.9162 11.3437L12.9164 11.3438C13.0573 11.4401 13.2348 11.4825 13.4101 11.4629C13.5854 11.4433 13.7461 11.363 13.856 11.2378L13.8561 11.2377L16.2777 8.4625L16.2778 8.46235C16.5045 8.20044 16.448 7.82677 16.1573 7.62627L16.1566 7.62582C16.015 7.53142 15.8373 7.49145 15.663 7.51372C15.4889 7.53597 15.3307 7.61879 15.2245 7.74568L13.2103 10.0504L10.9739 8.50601C10.9739 8.50597 10.9738 8.50592 10.9737 8.50588C10.8363 8.40916 10.6623 8.36432 10.489 8.37983Z" fill="currentColor" stroke="currentColor" stroke-width="0.1"></path><path d="M10.489 12.9501L10.4889 12.9501L10.4869 12.9504C10.3132 12.9732 10.1542 13.0526 10.0419 13.1745L10.0419 13.1745L10.0412 13.1754L7.67146 15.8659L7.67094 15.8654L7.66652 15.8725C7.50573 16.1309 7.58501 16.4523 7.84537 16.6285C8.10355 16.8032 8.46687 16.7869 8.70376 16.5887L8.70411 16.5891L8.70904 16.5836L10.6791 14.3691L12.9162 15.914L12.9164 15.9141C13.0573 16.0104 13.2348 16.0528 13.4101 16.0332C13.5854 16.0136 13.7461 15.9333 13.856 15.8081L13.8561 15.808L16.2777 13.0328L16.2778 13.0327C16.5045 12.7707 16.448 12.3971 16.1573 12.1966L16.1566 12.1961C16.015 12.1017 15.8373 12.0618 15.663 12.084C15.4889 12.1063 15.3307 12.1891 15.2245 12.316L13.2103 14.6207L10.9739 13.0763C10.9739 13.0763 10.9738 13.0762 10.9737 13.0762C10.8363 12.9795 10.6623 12.9346 10.489 12.9501Z" fill="currentColor" stroke="currentColor" stroke-width="0.1"></path></svg>
