<svg width="24" height="24" viewBox="0 0 24 24" fill="none" xmlns="http://www.w3.org/2000/svg">
<path d="M20.3113 11.4063C20.6917 11.4063 21 11.098 21 10.7177V8.62797C21 5.15303 18.8311 3 15.372 3H8.62797C5.15303 3 3 5.15303 3 8.62797V15.3799C3 18.847 5.15303 21 8.62797 21H15.3799C18.847 21 21 18.847 21 15.3799C21 14.9996 20.6917 14.6913 20.3113 14.6913C19.931 14.6913 19.6227 14.9996 19.6227 15.3799C19.6227 18.1108 18.1187 19.6227 15.372 19.6227H8.62797C5.88918 19.6227 4.37731 18.1187 4.37731 15.3799V8.62797C4.37731 5.88918 5.88127 4.37731 8.62797 4.37731H15.372C18.1108 4.37731 19.6227 5.88918 19.6227 8.62797V10.7098C19.6184 10.893 19.6883 11.0703 19.8164 11.2014C19.9445 11.3325 20.1201 11.4064 20.3034 11.4063H20.3113Z" fill="currentColor"/>
<path d="M10.4891 10.3799L10.487 10.3802C10.3133 10.403 10.1543 10.4824 10.042 10.6043L10.0413 10.6052L7.67157 13.2956L7.66663 13.3023C7.50584 13.5607 7.58512 13.8821 7.84548 14.0583C8.10366 14.233 8.46698 14.2166 8.70387 14.0185L8.70915 14.0134L10.6792 11.7989L12.9163 13.3438C13.0572 13.4401 13.2349 13.4826 13.4102 13.463C13.5855 13.4434 13.7462 13.3631 13.8561 13.2379L16.2778 10.4626C16.5045 10.2007 16.4481 9.82688 16.1574 9.62638C16.0158 9.53198 15.8374 9.49156 15.6631 9.51383C15.489 9.53608 15.3308 9.6189 15.2246 9.74579L13.2104 12.0505L10.974 10.5061C10.9741 10.5062 10.974 10.5061 10.974 10.5061C10.8366 10.4094 10.6624 10.3644 10.4891 10.3799Z" fill="currentColor"/>
<path d="M10.974 10.5061L13.2104 12.0505L15.2246 9.74579C15.3308 9.6189 15.489 9.53608 15.6631 9.51383C15.8374 9.49156 16.0158 9.53198 16.1574 9.62638C16.4481 9.82688 16.5045 10.2007 16.2778 10.4626L13.8561 13.2379C13.7462 13.3631 13.5855 13.4434 13.4102 13.463C13.2349 13.4826 13.0572 13.4401 12.9163 13.3438L10.6792 11.7989L8.70915 14.0134L8.70387 14.0185C8.46698 14.2166 8.10366 14.233 7.84548 14.0583C7.58512 13.8821 7.50584 13.5607 7.66663 13.3023L7.67157 13.2956L10.0413 10.6052L10.042 10.6043C10.1543 10.4824 10.3133 10.403 10.487 10.3802L10.4891 10.3799C10.6624 10.3644 10.8366 10.4094 10.974 10.5061ZM10.974 10.5061C10.974 10.5061 10.9741 10.5062 10.974 10.5061Z" stroke="currentColor" stroke-width="0.1"/>
</svg>
