<svg width="24" height="24" fill="none" xmlns="http://www.w3.org/2000/svg"><path d="M20.068 11.632a.66.66 0 0 0 .66-.66V8.73c0-3.37-2.104-5.457-5.452-5.457H8.73c-3.37 0-5.457 2.087-5.457 5.46v6.545c0 3.362 2.088 5.45 5.457 5.45h6.548c3.362 0 5.45-2.088 5.447-5.453a.668.668 0 0 0-1.335 0c0 2.648-1.459 4.114-4.114 4.114H8.73c-2.656 0-4.122-1.466-4.122-4.114V8.73c0-2.656 1.466-4.122 4.125-4.122h6.545c2.657 0 4.114 1.457 4.114 4.122V10.95c.001.368.3.666.668.666v.016h.008Z" fill="currentColor"></path><path d="M9.748 15.496h5.381a.752.752 0 0 0 .748-.755.752.752 0 0 0-.748-.755H9.748a.752.752 0 0 0-.748.755c0 .417.335.755.748.755ZM9.748 10.51h3.346a.752.752 0 0 0 .747-.755.752.752 0 0 0-.747-.755H9.748A.752.752 0 0 0 9 9.755c0 .417.335.755.748.755Z" fill="currentColor"></path></svg>
