<svg width="28" height="28" fill="none" viewBox="0 0 28 28" xmlns="http://www.w3.org/2000/svg"><path d="M4.119 12.348a.881.881 0 0 1-.882.882h-.013a.89.89 0 0 1-.89-.892v-2.71c0-4.503 2.811-7.295 7.296-7.295h8.742c4.504 0 7.295 2.792 7.295 7.3v8.75c0 4.493-2.79 7.284-7.295 7.284H9.618c-4.494 0-7.285-2.79-7.283-7.288a.892.892 0 1 1 1.785 0c0 3.54 1.95 5.5 5.51 5.5h8.742c3.55 0 5.51-1.95 5.51-5.5v-8.75c0-3.55-1.949-5.51-5.51-5.51H9.629c-3.55 0-5.51 1.96-5.51 5.51v2.719Z" fill="currentColor"></path><path d="M10.177 14.806h8.402c.46 0 .833-.378.833-.845a.839.839 0 0 0-.833-.844h-8.412a.839.839 0 0 0-.833.844c0 .467.372.845.833.845h.01ZM10.177 20.045h8.402c.46 0 .833-.378.833-.845a.839.839 0 0 0-.833-.845h-8.412a.839.839 0 0 0-.833.845c0 .467.372.845.833.845h.01ZM10.095 9.872h8.402a.84.84 0 0 0 .806-.396.865.865 0 0 0 0-.908.84.84 0 0 0-.806-.396h-8.413a.85.85 0 0 0-.75.85.85.85 0 0 0 .75.85h.01Z" fill="currentColor"></path></svg>
