<svg width="28" height="28" fill="none" viewBox="0 0 28 28" xmlns="http://www.w3.org/2000/svg"><path d="m23.674 8.816-5.891-6.198a.867.867 0 0 0-.63-.27h-.24c-.023-.003-.042-.015-.066-.015s-.044.012-.067.014H9.415c-2.89 0-5.331 2.41-5.331 5.261v4.852c0 .487.39.881.872.881a.877.877 0 0 0 .872-.88V7.607c0-1.897 1.642-3.499 3.587-3.499h6.56v2.523c0 2.15 1.73 3.9 3.858 3.906h.001a.877.877 0 0 0 .873-.879.876.876 0 0 0-.87-.883c-1.168-.003-2.117-.965-2.117-2.144V5.097l4.452 4.683v10.413c0 1.977-1.619 3.711-3.465 3.711H9.415c-2.01 0-3.587-1.63-3.587-3.711v-2.944a.877.877 0 0 0-.872-.88.877.877 0 0 0-.873.88v2.944c0 3.069 2.343 5.473 5.332 5.473h9.292c2.824 0 5.21-2.506 5.21-5.473V9.426a.887.887 0 0 0-.243-.61Z" fill="currentColor"></path><path d="M10.307 13.492h7.395a.74.74 0 0 0 .733-.746.74.74 0 0 0-.733-.746h-7.404a.74.74 0 0 0-.733.746.74.74 0 0 0 .733.746h.01ZM10.046 17.345h4.796c.263 0 .476-.327.476-.73 0-.403-.213-.73-.476-.73H10.04c-.262 0-.475.327-.475.73 0 .403.213.73.476.73h.005Z" fill="currentColor"></path></svg>
