<svg width="24" height="24" viewBox="0 0 24 24" fill="none" xmlns="http://www.w3.org/2000/svg"><path d="M19.3339 11.3339C18.9649 11.3339 18.6678 11.631 18.6678 12C18.6678 15.6767 15.6767 18.6678 12 18.6678C8.32327 18.6678 5.33224 15.6767 5.33224 12C5.33224 8.32327 8.32327 5.33224 12 5.33224C14.0082 5.33224 15.8694 6.21714 17.1298 7.73878H14.8278C14.4588 7.73878 14.1616 8.03592 14.1616 8.4049C14.1616 8.77388 14.4588 9.07102 14.8278 9.07102H18.5698C18.9388 9.07102 19.2359 8.77388 19.2359 8.4049V4.66612C19.2359 4.29714 18.9388 4 18.5698 4C18.2008 4 17.9037 4.29714 17.9037 4.66612V6.59265C16.3984 4.9502 14.2792 4 12 4C7.58857 4 4 7.58857 4 12C4 16.4114 7.58857 20 12 20C16.4114 20 20 16.4114 20 12C20 11.631 19.7029 11.3339 19.3339 11.3339Z" fill="currentColor"></path></svg>
