<svg width="19" height="20" viewBox="0 0 19 20" fill="none" xmlns="http://www.w3.org/2000/svg">
<path d="M2.17976 3.5043L5.96391 7.28845L3.02042 7.2825C2.67154 7.28131 2.38874 7.56292 2.38814 7.9124C2.38635 8.26188 2.67034 8.54348 3.01804 8.54468L7.49043 8.5542C7.49103 8.5548 7.49103 8.5548 7.49162 8.5542C7.57319 8.5548 7.65535 8.53813 7.73275 8.50598C7.80955 8.47442 7.87921 8.42858 7.93755 8.37023L7.93815 8.36964C7.94589 8.3619 7.94767 8.35297 7.95482 8.34463C8.00304 8.29164 8.04531 8.2327 8.07389 8.16483C8.10247 8.09577 8.11497 8.02254 8.11914 7.94812C8.11914 7.93978 8.12331 7.93323 8.12271 7.9243C8.12331 7.84155 8.10664 7.75939 8.07508 7.68258C8.04234 7.60459 7.99709 7.53553 7.93815 7.47659L3.07281 2.61125C2.82633 2.36477 2.42624 2.36477 2.17976 2.61125C1.93328 2.85773 1.93328 3.25782 2.17976 3.5043Z" fill="currentColor"/>
<path d="M8.11934 4.97502L8.11577 3.44969C8.11517 3.27525 8.04492 3.11807 7.9312 3.00435C7.8163 2.88945 7.65852 2.8186 7.4823 2.8186C7.13341 2.81979 6.8518 3.10259 6.85299 3.45147L6.85657 4.9768C6.85776 5.32569 7.13996 5.60789 7.48885 5.60789C7.83773 5.6067 8.11993 5.32331 8.11934 4.97502Z" fill="currentColor"/>
<path d="M2.17976 16.4957L5.96391 12.7115L3.02042 12.7175C2.67154 12.7187 2.38874 12.4371 2.38814 12.0876C2.38635 11.7381 2.67034 11.4565 3.01804 11.4553L7.49043 11.4458C7.49103 11.4452 7.49103 11.4452 7.49162 11.4458C7.57319 11.4452 7.65535 11.4619 7.73275 11.494C7.80955 11.5256 7.87921 11.5714 7.93755 11.6298L7.93815 11.6304C7.94589 11.6381 7.94767 11.647 7.95482 11.6554C8.00304 11.7084 8.04531 11.7673 8.07389 11.8352C8.10247 11.9042 8.11497 11.9775 8.11914 12.0519C8.11914 12.0602 8.12331 12.0668 8.12271 12.0757C8.12331 12.1585 8.10664 12.2406 8.07508 12.3174C8.04234 12.3954 7.99709 12.4645 7.93815 12.5234L3.07281 17.3887C2.82633 17.6352 2.42624 17.6352 2.17976 17.3887C1.93328 17.1423 1.93328 16.7422 2.17976 16.4957Z" fill="currentColor"/>
<path d="M8.11934 15.026L8.11577 16.5513C8.11517 16.7257 8.04492 16.8829 7.9312 16.9966C7.8163 17.1115 7.65852 17.1824 7.4823 17.1824C7.13341 17.1812 6.8518 16.8984 6.85299 16.5495L6.85657 15.0242C6.85776 14.6753 7.13996 14.3931 7.48885 14.3931C7.83773 14.3943 8.11993 14.6777 8.11934 15.026Z" fill="currentColor"/>
<path d="M16.8202 3.5043L13.0361 7.28845L15.9796 7.2825C16.3285 7.28131 16.6113 7.56292 16.6119 7.9124C16.6136 8.26188 16.3297 8.54348 15.982 8.54467L11.5096 8.5542C11.509 8.5548 11.509 8.5548 11.5084 8.5542C11.4268 8.5548 11.3447 8.53813 11.2673 8.50598C11.1905 8.47442 11.1208 8.42858 11.0624 8.37023L11.0619 8.36964C11.0541 8.3619 11.0523 8.35297 11.0452 8.34463C10.997 8.29164 10.9547 8.2327 10.9261 8.16483C10.8975 8.09577 10.885 8.02254 10.8809 7.94812C10.8809 7.93978 10.8767 7.93323 10.8773 7.9243C10.8767 7.84155 10.8934 7.75939 10.9249 7.68258C10.9577 7.60459 11.0029 7.53553 11.0619 7.47659L15.9272 2.61125C16.1737 2.36477 16.5738 2.36477 16.8202 2.61125C17.0667 2.85773 17.0667 3.25782 16.8202 3.5043Z" fill="currentColor"/>
<path d="M10.8807 4.97502L10.8842 3.44969C10.8848 3.27525 10.9551 3.11807 11.0688 3.00435C11.1837 2.88945 11.3415 2.8186 11.5177 2.8186C11.8666 2.81979 12.1482 3.10259 12.147 3.45147L12.1434 4.9768C12.1422 5.32569 11.86 5.60789 11.5112 5.60789C11.1623 5.6067 10.8801 5.32331 10.8807 4.97502Z" fill="currentColor"/>
<path d="M16.8202 16.4957L13.0361 12.7115L15.9796 12.7175C16.3285 12.7187 16.6113 12.4371 16.6119 12.0876C16.6136 11.7381 16.3297 11.4565 15.982 11.4553L11.5096 11.4458C11.509 11.4452 11.509 11.4452 11.5084 11.4458C11.4268 11.4452 11.3447 11.4619 11.2673 11.494C11.1905 11.5256 11.1208 11.5714 11.0624 11.6298L11.0619 11.6304C11.0541 11.6381 11.0523 11.647 11.0452 11.6554C10.997 11.7084 10.9547 11.7673 10.9261 11.8352C10.8975 11.9042 10.885 11.9775 10.8809 12.0519C10.8809 12.0602 10.8767 12.0668 10.8773 12.0757C10.8767 12.1585 10.8934 12.2406 10.9249 12.3174C10.9577 12.3954 11.0029 12.4645 11.0619 12.5234L15.9272 17.3887C16.1737 17.6352 16.5738 17.6352 16.8202 17.3887C17.0667 17.1423 17.0667 16.7422 16.8202 16.4957Z" fill="currentColor"/>
<path d="M10.8807 15.026L10.8842 16.5513C10.8848 16.7257 10.9551 16.8829 11.0688 16.9966C11.1837 17.1115 11.3415 17.1824 11.5177 17.1824C11.8666 17.1812 12.1482 16.8984 12.147 16.5495L12.1434 15.0242C12.1422 14.6753 11.86 14.3931 11.5112 14.3931C11.1623 14.3943 10.8801 14.6777 10.8807 15.026Z" fill="currentColor"/>
</svg>
