<svg width="24" height="24"
		viewBox="0 0 24 24"
		fill="none"
		xmlns="http://www.w3.org/2000/svg"
	>
		<path
			fillRule="evenodd"
			clipRule="evenodd"
			d="M4.347 8.762a.756.756 0 0 1-.762.747.755.755 0 0 1-.761-.747v-1.86c0-2.149 1.783-3.9 3.974-3.901L8.427 3c.42 0 .762.334.762.747 0 .412-.34.746-.761.746L6.8 4.494c-1.353.002-2.453 1.082-2.453 2.409v1.859ZM15.6 4.493h1.593c1.357 0 2.46 1.083 2.46 2.413v1.857c0 .41.342.746.762.746s.76-.335.76-.746V6.906c0-2.154-1.785-3.905-3.982-3.905H15.6a.753.753 0 0 0-.761.746c0 .412.34.746.76.746Zm6.638 7.548H1.761a.755.755 0 0 0-.761.747c0 .412.342.747.761.747h1.062v3.561c0 2.15 1.784 3.901 3.976 3.903L8.427 21a.755.755 0 0 0 .762-.747.754.754 0 0 0-.761-.747H6.8c-1.353-.002-2.454-1.082-2.454-2.41v-3.561h15.309v3.558c0 1.332-1.104 2.413-2.461 2.413h-1.593a.754.754 0 0 0-.761.747c0 .413.341.747.761.747h1.593c2.196 0 3.983-1.751 3.983-3.907v-3.558h1.062c.42 0 .761-.335.761-.747a.754.754 0 0 0-.761-.747ZM10.142 9.51h3.717a.755.755 0 0 0 .762-.747.754.754 0 0 0-.762-.746h-3.717a.754.754 0 0 0-.761.746c0 .412.34.747.76.747Zm0 6.265h3.717c.42 0 .761.334.761.746a.753.753 0 0 1-.76.746h-3.718a.754.754 0 0 1-.762-.746c0-.412.341-.746.762-.746Z"
			fill="currentColor"
		/>
	</svg>
