<svg
			width="20"
			height="20"
      viewBox="0 0 20 20"
			fill="none"
			xmlns="http://www.w3.org/2000/svg"
		>
			<path
				d="M2.941 8.82a.63.63 0 0 1-.63.63H2.302a.636.636 0 0 1-.636-.638V6.877c0-3.217 2.008-5.211 5.212-5.211h6.244c3.217 0 5.21 1.994 5.21 5.213v6.25c0 3.21-1.993 5.204-5.21 5.204H6.869c-3.21 0-5.203-1.994-5.202-5.206a.638.638 0 1 1 1.275 0c0 2.528 1.392 3.928 3.936 3.928h6.244c2.536 0 3.936-1.392 3.936-3.928v-6.25c0-2.536-1.392-3.936-3.936-3.936H6.877c-2.536 0-3.936 1.4-3.936 3.936v1.942Z"
				fill="currentColor"
			/>
			<path
				fillRule="evenodd"
				clipRule="evenodd"
				d="M8.31 12.643a1.72 1.72 0 0 1-3.31-.65 1.716 1.716 0 0 1 1.058-1.59 1.723 1.723 0 0 1 1.876.37c.493.49.642 1.228.376 1.87Zm-.847-.65a.742.742 0 1 0-1.485.002.742.742 0 0 0 1.485-.002ZM14.56 13.622a1.72 1.72 0 0 1-3.31-.65 1.716 1.716 0 0 1 1.058-1.59 1.723 1.723 0 0 1 1.876.369c.493.49.642 1.229.376 1.87Zm-.847-.65a.742.742 0 1 0-1.485.002.742.742 0 0 0 1.485-.002ZM13.31 8.622a1.72 1.72 0 0 1-3.31-.65 1.716 1.716 0 0 1 1.058-1.59 1.723 1.723 0 0 1 1.876.369c.493.49.642 1.229.376 1.87Zm-.847-.65a.742.742 0 1 0-1.485.002.742.742 0 0 0 1.485-.002Z"
				fill="currentColor"
			/>
		</svg>
