<svg width="28" height="28" fill="none" xmlns="http://www.w3.org/2000/svg"><path fill-rule="evenodd" clip-rule="evenodd" d="M23.715 5.283a.95.95 0 0 1-.002 1.359L18.036 12.2l-.1.086a.988.988 0 0 1-1.28-.09.949.949 0 0 1 .003-1.357l5.675-5.56.1-.085a.988.988 0 0 1 1.281.09Zm.086 16.842a.95.95 0 0 1-.086 1.26.988.988 0 0 1-1.38.001l-8.547-8.373-.088-.098a.945.945 0 0 1 .085-1.259.986.986 0 0 1 1.38-.002l8.548 8.372.088.099Z" fill="currentColor"></path><path d="m23.713 6.642-.35-.358.35.358Zm.002-1.359.352-.355-.352.355ZM18.036 12.2l.35.358-.012.011-.013.012-.325-.38Zm-.1.086.325.38-.013.011-.014.01-.298-.401Zm-1.28-.09-.352.356.352-.355Zm.002-1.357.35.358-.35-.357Zm5.676-5.56-.35-.357.013-.012.013-.01.324.38Zm.1-.085-.324-.38.013-.011.013-.01.299.4Zm1.281 18.19.352.356-.352-.355Zm.086-1.26.372-.332.012.012.01.014-.394.307Zm-1.466 1.262.35-.357-.35.357Zm-8.547-8.373-.35.357-.012-.011-.011-.012.373-.334Zm-.088-.098-.373.334-.011-.013-.01-.014.394-.307Zm.085-1.259-.352-.355.352.355Zm1.38-.002-.35.357.35-.357Zm8.548 8.372.35-.357.012.012.01.012-.372.333Zm-.35-15.742a.45.45 0 0 0 0-.646l.704-.71a1.45 1.45 0 0 1-.005 2.071l-.699-.715Zm-5.677 5.56 5.677-5.56.7.715-5.677 5.559-.7-.715Zm-.075.062.1-.086.65.76-.1.086-.65-.76Zm-.604-.065c.17.168.441.184.63.044l.597.802a1.488 1.488 0 0 1-1.93-.135l.703-.71Zm-.136-.322c0 .114.044.231.137.322l-.704.71a1.453 1.453 0 0 1-.433-1.032h1Zm.137-.322a.449.449 0 0 0-.137.322h-1c0-.376.147-.753.438-1.037l.699.715Zm5.676-5.56-5.676 5.56-.7-.715 5.677-5.56.7.715Zm.075-.063-.1.086-.65-.76.101-.086.65.76Zm.604.064a.488.488 0 0 0-.63-.043l-.597-.802a1.488 1.488 0 0 1 1.931.135l-.704.71Zm0 17.391a.45.45 0 0 0 .043-.597l.79-.614a1.45 1.45 0 0 1-.129 1.922l-.704-.71Zm-.678 0a.488.488 0 0 0 .68 0l.702.712a1.488 1.488 0 0 1-2.082.002l.7-.714Zm-8.547-8.373 8.546 8.373-.7.714-8.546-8.373.7-.714Zm-.065-.074.087.098-.745.667-.088-.098.746-.667ZM14 14.334c0 .097.031.193.094.274l-.789.614a1.445 1.445 0 0 1-.305-.888h1Zm.137-.323a.454.454 0 0 0-.137.323h-1c0-.376.148-.75.433-1.033l.704.71Zm.679 0a.486.486 0 0 0-.68 0l-.703-.71a1.487 1.487 0 0 1 2.083-.004l-.7.714Zm8.547 8.373-8.547-8.373.7-.714 8.547 8.372-.7.715Zm.065.074-.088-.098.745-.667.088.098-.745.667Z" fill="currentColor"></path><path fill-rule="evenodd" clip-rule="evenodd" d="M13.715 5.283a.95.95 0 0 1-.002 1.359L8.036 12.2l-.1.086a.988.988 0 0 1-1.28-.09.949.949 0 0 1 .003-1.357l5.675-5.56.1-.085a.988.988 0 0 1 1.281.09Zm.086 16.842a.95.95 0 0 1-.086 1.26.988.988 0 0 1-1.38.001l-8.547-8.373-.088-.098a.945.945 0 0 1 .085-1.259.986.986 0 0 1 1.38-.002l8.548 8.372.088.099Z" fill="currentColor"></path><path d="m13.713 6.642-.35-.358.35.358Zm.002-1.359.352-.355-.352.355ZM8.036 12.2l.35.358-.012.011-.013.012-.325-.38Zm-.1.086.325.38-.013.011-.014.01-.298-.401Zm-1.28-.09-.352.356.352-.355Zm.002-1.357.35.358-.35-.357Zm5.676-5.56-.35-.357.013-.012.013-.01.325.38Zm.1-.085-.324-.38.013-.011.013-.01.299.4Zm1.281 18.19.352.356-.352-.355Zm.086-1.26.372-.332.012.012.01.014-.394.307Zm-1.466 1.262.35-.357-.35.357Zm-8.547-8.373-.35.357-.012-.011-.011-.012.373-.334Zm-.088-.098-.373.334-.011-.013-.01-.014.394-.307Zm.085-1.259-.352-.355.352.355Zm1.38-.002-.35.357.35-.357Zm8.548 8.372.35-.357.011.012.011.012-.372.333Zm-.35-15.742a.45.45 0 0 0 0-.646l.704-.71a1.45 1.45 0 0 1-.005 2.071l-.699-.715Zm-5.677 5.56 5.677-5.56.7.715-5.677 5.559-.7-.715Zm-.075.062.1-.086.65.76-.1.086-.65-.76Zm-.604-.065c.17.168.441.184.63.044l.597.802a1.488 1.488 0 0 1-1.93-.135l.703-.71Zm-.136-.322c0 .114.044.231.136.322l-.703.71a1.453 1.453 0 0 1-.433-1.032h1Zm.137-.322a.449.449 0 0 0-.137.322h-1c0-.376.147-.753.438-1.037l.699.715Zm5.676-5.56-5.676 5.56-.7-.715 5.677-5.56.7.715Zm.075-.063-.1.086-.65-.76.101-.086.65.76Zm.604.064a.488.488 0 0 0-.63-.043l-.597-.802a1.488 1.488 0 0 1 1.931.135l-.704.71Zm0 17.391a.45.45 0 0 0 .043-.597l.79-.614a1.45 1.45 0 0 1-.129 1.922l-.704-.71Zm-.678 0a.488.488 0 0 0 .68 0l.702.712a1.488 1.488 0 0 1-2.082.002l.7-.714Zm-8.548-8.373 8.547 8.373-.7.714-8.546-8.373.7-.714Zm-.064-.074.087.098-.745.667-.088-.098.746-.667ZM4 14.334c0 .097.031.193.094.274l-.789.614A1.445 1.445 0 0 1 3 14.334h1Zm.137-.323a.454.454 0 0 0-.137.323H3c0-.376.148-.75.433-1.033l.704.71Zm.679 0a.486.486 0 0 0-.68 0l-.703-.71a1.487 1.487 0 0 1 2.083-.004l-.7.714Zm8.547 8.373L4.816 14.01l.7-.714 8.547 8.372-.7.715Zm.065.074-.088-.098.745-.667.088.098-.745.667Z" fill="currentColor"></path></svg>
