<svg width="28" height="28" viewBox="0 0 28 28" fill="none" xmlns="http://www.w3.org/2000/svg"><path fill-rule="evenodd" clip-rule="evenodd" d="M2 14.6667C2 8.2325 7.23367 3 13.6667 3C20.0997 3 25.3333 8.2325 25.3333 14.6667C25.3333 21.0997 20.0997 26.3333 13.6667 26.3333C10.0185 26.3333 6.64683 24.6732 4.4185 21.781C4.13267 21.4088 4.20267 20.8757 4.57367 20.591C4.94467 20.304 5.4755 20.3752 5.7625 20.745C7.66767 23.2183 10.5482 24.637 13.6667 24.637C19.164 24.637 23.637 20.1652 23.637 14.6667C23.637 9.16933 19.164 4.69633 13.6667 4.69633C8.16933 4.69633 3.6975 9.16933 3.6975 14.6667C3.6975 15.1777 3.73483 15.6852 3.81067 16.1822C3.88067 16.6442 3.56333 17.077 3.10017 17.1482C2.63467 17.2252 2.20417 16.902 2.13417 16.4388C2.0455 15.8578 2 15.2617 2 14.6667ZM12.4231 9.81029C12.4231 9.34129 12.8034 8.96096 13.2713 8.96096C13.7391 8.96096 14.1194 9.34129 14.1194 9.81029V14.9973L18.1141 17.3796C18.5166 17.62 18.6484 18.1403 18.4081 18.5428C18.2506 18.8076 17.9683 18.9558 17.6801 18.9558C17.5319 18.9558 17.3814 18.9173 17.2461 18.8368L12.8361 16.2071C12.5806 16.0531 12.4231 15.7766 12.4231 15.478V9.81029Z" fill="currentColor"></path></svg>
