<svg
			width="17"
			height="16"
			viewBox="0 0 17 16"
			fill="none"
			xmlns="http://www.w3.org/2000/svg"
		>
			<path
				fillRule="evenodd"
				clipRule="evenodd"
				d="M15.4346 11.4571C15.4459 11.4765 15.4553 11.4971 15.4639 11.5178C15.5433 11.7131 15.5886 11.9191 15.5999 12.1298C15.6259 12.6331 15.4546 13.1158 15.1166 13.4905C14.7793 13.8651 14.3159 14.0858 13.8126 14.1111L6.64126 14.1118C6.36526 14.1118 6.14126 13.8878 6.14126 13.6118C6.14126 13.3358 6.36526 13.1118 6.64126 13.1118H13.7873C13.9979 13.0998 14.2153 12.9971 14.3746 12.8205C14.5333 12.6445 14.6133 12.4185 14.6013 12.1818C14.5966 12.0925 14.5786 12.0045 14.5473 11.9205L9.7146 3.46313C9.47526 3.03046 8.9346 2.87446 8.5066 3.11113C8.3606 3.19179 8.24126 3.31113 8.1606 3.45713L3.32393 11.9211C3.24593 12.1331 3.25126 12.3631 3.33926 12.5718C3.43126 12.7898 3.6026 12.9591 3.82193 13.0478C3.9146 13.0858 4.0106 13.1071 4.10993 13.1125C4.38526 13.1258 4.59793 13.3611 4.58393 13.6371C4.5706 13.9038 4.34926 14.1118 4.0846 14.1118H4.08456C4.07591 14.1118 4.06792 14.1118 4.05926 14.1111C3.84726 14.1005 3.6406 14.0545 3.4446 13.9745C2.97926 13.7851 2.6146 13.4251 2.4186 12.9611C2.22193 12.4971 2.2186 11.9838 2.4086 11.5171C2.4166 11.4965 2.42593 11.4765 2.43726 11.4571L7.2886 2.96713C7.4566 2.66313 7.71193 2.40846 8.02193 2.23579C8.93326 1.73179 10.0833 2.06246 10.5866 2.97313L15.4346 11.4571ZM8.93594 9.06532C9.21194 9.06532 9.43594 8.84132 9.43594 8.56532V6.68066C9.43594 6.40466 9.21194 6.18066 8.93594 6.18066C8.65994 6.18066 8.43594 6.40466 8.43594 6.68066V8.56532C8.43594 8.84132 8.65994 9.06532 8.93594 9.06532ZM8.93594 11.346C9.21194 11.346 9.43594 11.122 9.43594 10.846V10.8393C9.43594 10.5633 9.21194 10.3427 8.93594 10.3427C8.65994 10.3427 8.43594 10.57 8.43594 10.846C8.43594 11.122 8.65994 11.346 8.93594 11.346Z"
				fill="currentColor"
			/>
		</svg>
