<svg width="17" height="16" viewBox="0 0 17 16" fill="none" xmlns="http://www.w3.org/2000/svg"><path d="M16.0397 11.7673C16.0303 11.7448 16.0201 11.7223 16.0078 11.7013L10.7318 2.46822C10.184 1.47715 8.93247 1.11729 7.94067 1.66579C7.6033 1.8537 7.32542 2.13085 7.14259 2.46169L1.86293 11.7013C1.85059 11.7223 1.84044 11.7441 1.83173 11.7666C1.62495 12.2745 1.62858 12.8331 1.84261 13.3381C2.05592 13.843 2.45278 14.2348 2.9592 14.4409C3.1725 14.5279 3.39742 14.578 3.62814 14.5896C3.63757 14.5903 3.64627 14.5903 3.65571 14.5903C3.94374 14.5903 4.18462 14.364 4.19913 14.0738C4.21436 13.7734 3.98292 13.5173 3.68328 13.5028C3.57517 13.497 3.4707 13.4738 3.36985 13.4324C3.13115 13.3359 2.94469 13.1516 2.84457 12.9144C2.7488 12.6873 2.74299 12.437 2.82788 12.2063L8.09158 2.99496C8.17937 2.83607 8.30924 2.7062 8.46813 2.61841C8.93392 2.36085 9.52232 2.53062 9.78279 3.00149L15.0421 12.2055C15.0762 12.2969 15.0958 12.3927 15.1009 12.4899C15.114 12.7475 15.0269 12.9935 14.8542 13.185C14.6808 13.3773 14.4443 13.489 14.215 13.502H6.4381C6.13774 13.502 5.89396 13.7458 5.89396 14.0462C5.89396 14.3466 6.13774 14.5903 6.4381 14.5903L14.2426 14.5896C14.7904 14.562 15.2946 14.3219 15.6617 13.9141C16.0296 13.5064 16.216 12.9811 16.1877 12.4333C16.1754 12.2041 16.1261 11.9799 16.0397 11.7673Z" fill="currentColor"></path><path d="M10.4959 8.11323L8.32364 10.2861L7.37402 9.33592C7.22305 9.18495 6.97831 9.18495 6.82734 9.33592C6.67637 9.48689 6.67637 9.73164 6.82734 9.88261L8.05004 11.1058C8.12269 11.178 8.22058 11.2187 8.32364 11.2187C8.42566 11.2187 8.52407 11.178 8.59672 11.1058L11.0426 8.65991C11.1936 8.50894 11.1936 8.2642 11.0426 8.11323C10.8917 7.96226 10.6469 7.96226 10.4959 8.11323Z" fill="currentColor"></path></svg>
