<svg width="16" height="16" viewBox="0 0 16 16" fill="none" xmlns="http://www.w3.org/2000/svg">
<path d="M14.5294 11.5178C14.5207 11.4971 14.5114 11.4765 14.5 11.4571L9.65203 2.97313C9.14869 2.06246 7.99869 1.73179 7.08736 2.23579C6.77736 2.40846 6.52203 2.66313 6.35403 2.96713L1.50269 11.4571C1.49136 11.4765 1.48203 11.4965 1.47403 11.5171C1.28403 11.9838 1.28736 12.4971 1.48403 12.9611C1.68003 13.4251 2.04469 13.7851 2.51003 13.9745C2.70603 14.0545 2.91269 14.1005 3.12469 14.1111C3.13336 14.1118 3.14136 14.1118 3.15003 14.1118C3.41469 14.1118 3.63603 13.9038 3.64936 13.6371C3.66336 13.3611 3.45069 13.1258 3.17536 13.1125C3.07603 13.1071 2.98003 13.0858 2.88736 13.0478C2.66803 12.9591 2.49669 12.7898 2.40469 12.5718C2.31669 12.3631 2.31136 12.1331 2.38936 11.9211L7.22603 3.45713C7.30669 3.31113 7.42603 3.19179 7.57203 3.11113C8.00003 2.87446 8.54069 3.03046 8.78003 3.46313L13.6127 11.9205C13.644 12.0045 13.662 12.0925 13.6667 12.1818C13.6787 12.4185 13.5987 12.6445 13.44 12.8205C13.2807 12.9971 13.0634 13.0998 12.8527 13.1118H5.70669C5.43069 13.1118 5.20669 13.3358 5.20669 13.6118C5.20669 13.8878 5.43069 14.1118 5.70669 14.1118L12.878 14.1111C13.3814 14.0858 13.8447 13.8651 14.182 13.4905C14.52 13.1158 14.6914 12.6331 14.6654 12.1298C14.654 11.9191 14.6087 11.7131 14.5294 11.5178" fill="currentColor"/>
</svg>
